<?xml version="1.0" encoding="UTF-8" standalone="no"?>
<svg
   xmlns:dc="http://purl.org/dc/elements/1.1/"
   xmlns:cc="http://creativecommons.org/ns#"
   xmlns:rdf="http://www.w3.org/1999/02/22-rdf-syntax-ns#"
   xmlns:svg="http://www.w3.org/2000/svg"
   xmlns="http://www.w3.org/2000/svg"
   xmlns:sodipodi="http://sodipodi.sourceforge.net/DTD/sodipodi-0.dtd"
   xmlns:inkscape="http://www.inkscape.org/namespaces/inkscape"
   width="113.82024mm"
   height="116.29672mm"
   viewBox="0 0 113.82024 116.29672"
   version="1.1"
   id="svg4917"
   inkscape:version="1.0.2 (e86c8708, 2021-01-15)"
   sodipodi:docname="robo3.svg">
  <defs
     id="defs4911" />
  <sodipodi:namedview
     id="base"
     pagecolor="#ffffff"
     bordercolor="#666666"
     borderopacity="1.0"
     inkscape:pageopacity="0.0"
     inkscape:pageshadow="2"
     inkscape:zoom="0.35"
     inkscape:cx="75.093359"
     inkscape:cy="128.34477"
     inkscape:document-units="mm"
     inkscape:current-layer="layer1"
     inkscape:document-rotation="0"
     showgrid="false"
     fit-margin-top="0"
     fit-margin-left="0"
     fit-margin-right="0"
     fit-margin-bottom="0"
     inkscape:window-width="1440"
     inkscape:window-height="874"
     inkscape:window-x="0"
     inkscape:window-y="26"
     inkscape:window-maximized="0" />
  <metadata
     id="metadata4914">
    <rdf:RDF>
      <cc:Work
         rdf:about="">
        <dc:format>image/svg+xml</dc:format>
        <dc:type
           rdf:resource="http://purl.org/dc/dcmitype/StillImage" />
        <dc:title></dc:title>
      </cc:Work>
    </rdf:RDF>
  </metadata>
  <g
     inkscape:label="Ebene 1"
     inkscape:groupmode="layer"
     id="layer1"
     transform="translate(-85.964882,-114.20878)">
    <path
       d="m 99.461911,226.73783 18.610439,0.79023 c -0.62159,-1.3582 -1.60196,-2.84339 -3.14396,-4.07459 -2.04187,-1.62983 -4.75897,-2.6035 -7.26828,-2.6035 -1.6771,0 -3.20392,0.42334 -4.53778,1.25589 -2.00272,1.25236 -3.08645,3.14678 -3.660419,4.63197 z m 20.697469,3.76767 c -0.0208,0 -0.0413,0 -0.0617,0 l -22.612705,-0.96308 c -0.425803,-0.0176 -0.82162,-0.22225 -1.08197,-0.56092 -0.259997,-0.33867 -0.357716,-0.77258 -0.267053,-1.18886 0.359128,-1.64395 1.60902,-5.72911 5.456768,-8.13506 1.79952,-1.12183 3.84104,-1.69333 6.06742,-1.69333 3.14255,0 6.53274,1.21003 9.06921,3.23497 2.92806,2.33539 4.23828,5.3587 4.82142,7.47889 0.12241,0.4445 0.0247,0.92075 -0.26247,1.28411 -0.27481,0.3422 -0.69074,0.54328 -1.12889,0.54328"
       style="fill:#231f20;fill-opacity:1;fill-rule:nonzero;stroke:none;stroke-width:0.0352778"
       id="path2211" />
    <path
       d="m 132.43781,226.49794 c 2.94605,0.41275 5.9302,0.62795 8.896,0.63853 h 0.23601 c 2.84303,0 5.70265,-0.18697 8.53122,-0.55739 -1.29363,-1.29116 -3.06034,-2.58233 -5.38409,-3.3655 -0.87066,-0.2928 -2.68005,-0.90311 -4.75509,-0.90311 -1.71591,0 -3.26849,0.41981 -4.61363,1.24531 -1.33491,0.81844 -2.2666,1.90147 -2.91042,2.94216 z m 9.13201,3.52778 h -0.24659 c -3.77508,-0.0141 -7.57838,-0.34572 -11.30441,-0.98425 -0.42969,-0.0741 -0.80293,-0.33866 -1.01565,-0.71966 -0.21308,-0.37748 -0.24236,-0.83609 -0.0804,-1.23825 0.71896,-1.79564 2.15512,-4.29331 4.9149,-5.98664 1.80657,-1.11125 3.86679,-1.67217 6.12422,-1.67217 2.54776,0 4.65984,0.70908 5.67478,1.05128 4.21993,1.42169 6.9021,4.20864 8.40916,6.29708 0.29175,0.4057 0.35419,0.93133 0.16581,1.38995 -0.18838,0.46213 -0.60113,0.79375 -1.0922,0.87841 -3.80682,0.65264 -7.69267,0.98425 -11.54959,0.98425"
       style="fill:#231f20;fill-opacity:1;fill-rule:nonzero;stroke:none;stroke-width:0.0352778"
       id="path2213" />
    <path
       d="m 122.37165,162.58167 c -2.67441,0.2928 -4.92019,1.26294 -6.49605,2.80105 -4.33669,4.24039 -2.71392,11.88156 -1.8422,15.98789 0.92569,4.36033 1.72473,8.12447 4.78613,9.9695 1.20509,0.72672 2.58445,1.0795 4.21711,1.0795 2.64795,0 5.36998,-0.93486 7.55685,-1.6898 3.05047,-1.04775 5.68113,-1.95439 7.0859,-4.33917 1.18321,-2.00731 0.72778,-4.76603 -0.18063,-10.25878 -0.6417,-3.88055 -1.24742,-7.54591 -3.91724,-11.26066 -0.74683,-1.03717 -1.60232,-2.00731 -2.54811,-2.88573 z m 0.66534,32.72719 c -3.5e-4,0 -3.5e-4,0 -3.5e-4,0 -2.14277,0 -4.0633,-0.50447 -5.70795,-1.49578 -4.1342,-2.49414 -5.09834,-7.03439 -6.11893,-11.84275 -0.98707,-4.64961 -2.82469,-13.30325 2.64831,-18.65136 2.04858,-2.00377 4.89514,-3.25261 8.23136,-3.61244 0.0183,0 0.0367,-0.004 0.0554,-0.004 L 131.425,159.064 c 0.381,-0.0282 0.78281,0.0988 1.07209,0.35278 1.28587,1.12536 2.43946,2.39536 3.42794,3.7712 3.06423,4.26155 3.75462,8.43491 4.42207,12.47422 0.98954,5.98664 1.53458,9.28511 -0.18062,12.19552 -1.94487,3.29848 -5.34282,4.4697 -8.62859,5.60212 -2.26907,0.77963 -5.36999,1.84855 -8.50089,1.84855"
       style="fill:#231f20;fill-opacity:1;fill-rule:nonzero;stroke:none;stroke-width:0.0352778"
       id="path2215" />
    <path
       d="m 124.49608,152.58395 c 0.0854,0.92075 0.13688,1.8415 0.15346,2.75872 0.0236,1.32291 -0.0243,2.65641 -0.14288,3.97933 l 5.86917,-0.21167 -0.22437,-6.73452 z m -1.61078,9.68022 c -0.40711,0 -0.79622,-0.16934 -1.07033,-0.47272 -0.2854,-0.3175 -0.41698,-0.74084 -0.35983,-1.16417 0.23565,-1.72861 0.33937,-3.48897 0.30797,-5.2317 -0.024,-1.32997 -0.12735,-2.67758 -0.30797,-4.0005 -0.055,-0.40216 0.0631,-0.81138 0.32561,-1.12536 0.26211,-0.31044 0.64382,-0.49741 1.05128,-0.51152 l 8.66034,-0.32103 c 0.38559,-0.0106 0.75671,0.12347 1.03717,0.38453 0.28081,0.26458 0.44591,0.62441 0.45861,1.00894 l 0.32102,9.62378 c 0.0265,0.79375 -0.59584,1.4605 -1.39135,1.48872 l -8.98102,0.32103 c -0.0173,0 -0.0342,0 -0.0515,0"
       style="fill:#231f20;fill-opacity:1;fill-rule:nonzero;stroke:none;stroke-width:0.0352778"
       id="path2217" />
    <path
       d="m 124.80829,157.45581 c -0.68122,0 -1.28693,-0.48331 -1.41711,-1.17828 -0.14676,-0.78317 0.36936,-1.53811 1.15288,-1.68628 l 5.13186,-0.95955 c 0.78281,-0.14817 1.53775,0.36688 1.68486,1.15005 0.14676,0.78317 -0.369,1.53811 -1.15252,1.68628 l -5.13257,0.96308 c -0.0899,0.0141 -0.17921,0.0247 -0.2674,0.0247"
       style="fill:#231f20;fill-opacity:1;fill-rule:nonzero;stroke:none;stroke-width:0.0352778"
       id="path2219" />
    <path
       d="m 140.77713,171.32703 c 2.55693,0.15875 5.11986,0.23989 7.63446,0.23989 h 0.44909 c 4.8514,-0.0176 5.80954,-0.32809 6.71759,-0.79728 1.28305,-0.66675 2.26131,-1.8415 4.35257,-4.43794 1.3081,-1.62278 2.11138,-2.8187 2.69805,-3.69006 0.97966,-1.45697 1.62736,-2.42006 3.13796,-2.87867 0.43815,-0.13405 0.8576,-0.19755 1.2827,-0.19755 1.22131,0 2.16993,0.5468 3.08751,1.07244 0.91651,0.52917 1.86443,1.07245 3.34962,1.32645 0.49918,0.0882 1.01494,0.13052 1.53247,0.13052 4.16877,0 7.82143,-2.80105 8.84167,-3.6583 2.21262,-1.86267 3.50061,-4.04283 4.24391,-5.83495 l -1.10454,-0.50447 c -1.62666,2.68817 -3.72675,4.84364 -6.25757,6.42056 -1.57022,0.98072 -3.94265,2.45886 -6.31332,2.45886 -0.75812,0 -1.46896,-0.14817 -2.11313,-0.44803 -1.58292,-0.73378 -2.13255,-2.01789 -2.57458,-3.05153 -0.3877,-0.90664 -0.64029,-1.4358 -1.3208,-1.78152 -0.40604,-0.20462 -0.8897,-0.31045 -1.43686,-0.31045 -1.3649,0 -2.9531,0.66322 -3.95182,1.651 -0.44591,0.44097 -0.54645,0.71967 -0.81491,1.45697 -0.18415,0.50448 -0.41346,1.13595 -0.82303,1.98967 -2.10432,4.39561 -4.74169,7.22842 -7.83908,8.42081 -0.81315,0.31397 -1.57409,0.44802 -4.18359,0.44802 -0.67028,0 -1.47814,-0.0106 -2.4578,-0.0282 -2.19287,-0.0423 -4.38997,-0.11994 -6.55426,-0.22578 z m 7.63446,3.12914 c -2.9471,0 -5.95842,-0.10936 -8.95103,-0.32809 -0.65405,-0.0459 -1.1938,-0.52916 -1.3148,-1.17122 l -0.96238,-5.13291 c -0.0815,-0.43745 0.042,-0.88548 0.33549,-1.22062 0.29316,-0.33161 0.72637,-0.51152 1.16734,-0.48683 2.71569,0.15875 5.50263,0.26458 8.28323,0.32103 0.95743,0.0176 1.7466,0.0247 2.40206,0.0247 2.49273,0 2.82434,-0.127 3.14466,-0.25047 2.38795,-0.92075 4.49862,-3.26672 6.27451,-6.97442 0.34854,-0.73025 0.54257,-1.26294 0.71402,-1.73213 0.31679,-0.87137 0.59019,-1.62278 1.49683,-2.51884 1.52683,-1.51341 3.87491,-2.48708 5.98241,-2.48708 1.00506,0 1.92758,0.20814 2.74179,0.62089 1.64994,0.83608 2.23978,2.21544 2.67017,3.22086 0.37536,0.87842 0.58032,1.31233 1.13277,1.56633 0.26494,0.12347 0.55951,0.18345 0.90064,0.18345 1.54447,0 3.49462,-1.21709 4.78543,-2.02142 2.45393,-1.53106 4.43901,-3.71828 5.90092,-6.50169 0.3556,-0.67734 1.17757,-0.95956 1.87536,-0.64559 l 3.52849,1.60514 c 0.66781,0.30339 1.00153,1.06186 0.77576,1.75683 -0.7426,2.30012 -2.31281,5.61623 -5.57566,8.36084 -1.5501,1.30175 -5.69524,4.33564 -10.7001,4.33564 -0.68051,0 -1.35996,-0.0564 -2.01965,-0.16934 -1.99249,-0.34219 -3.32775,-1.10772 -4.30283,-1.67216 -0.76482,-0.43745 -1.2185,-0.68792 -1.64747,-0.68792 -0.13653,0 -0.28152,0.0247 -0.44345,0.0741 -0.49212,0.14817 -0.67345,0.37748 -1.58185,1.72861 -0.6156,0.9137 -1.45909,2.16959 -2.84586,3.88762 -2.11737,2.62819 -3.39584,4.21569 -5.27015,5.18936 -1.49754,0.77611 -2.94534,1.10419 -8.03663,1.12536 h -0.46002"
       style="fill:#231f20;fill-opacity:1;fill-rule:nonzero;stroke:none;stroke-width:0.0352778"
       id="path2221" />
    <path
       d="m 143.79267,173.00978 c -0.68756,0 -1.29646,-0.49036 -1.41993,-1.19239 l -0.36089,-2.04258 c -0.13829,-0.7867 0.38594,-1.53459 1.17087,-1.67217 0.78599,-0.13758 1.53388,0.38453 1.67217,1.16769 l 0.36089,2.04612 c 0.13829,0.78669 -0.38559,1.53458 -1.17087,1.67216 -0.0847,0.0141 -0.16898,0.0212 -0.25224,0.0212"
       style="fill:#231f20;fill-opacity:1;fill-rule:nonzero;stroke:none;stroke-width:0.0352778"
       id="path2223" />
    <path
       d="m 149.56588,173.00978 c -0.70661,0 -1.32433,-0.51858 -1.42699,-1.23825 l -0.24059,-1.68275 c -0.11254,-0.79022 0.43603,-1.52047 1.22484,-1.63336 0.78846,-0.11642 1.52048,0.43391 1.63301,1.22414 l 0.2406,1.68275 c 0.11253,0.79022 -0.43604,1.52047 -1.2252,1.63336 -0.0688,0.0106 -0.13794,0.0141 -0.20567,0.0141"
       style="fill:#231f20;fill-opacity:1;fill-rule:nonzero;stroke:none;stroke-width:0.0352778"
       id="path2225" />
    <path
       d="m 156.78336,171.20708 c -0.26882,0 -0.54081,-0.0741 -0.78317,-0.23283 l -2.0447,-1.32292 c -0.66922,-0.43391 -0.86042,-1.32644 -0.42721,-1.99672 0.43356,-0.66675 1.3268,-0.86078 1.99602,-0.42686 l 2.0447,1.32292 c 0.66922,0.43391 0.86042,1.32644 0.42721,1.99672 -0.27623,0.42686 -0.73977,0.65969 -1.21285,0.65969"
       style="fill:#231f20;fill-opacity:1;fill-rule:nonzero;stroke:none;stroke-width:0.0352778"
       id="path2227" />
    <path
       d="m 161.47425,166.03536 c -0.29422,0 -0.59126,-0.0917 -0.84773,-0.27516 l -1.32292,-0.96309 c -0.64487,-0.46919 -0.7874,-1.3723 -0.31855,-2.01789 0.46884,-0.64558 1.37089,-0.78669 2.01647,-0.3175 l 1.32292,0.96309 c 0.64488,0.46919 0.7874,1.3723 0.31856,2.01436 -0.28258,0.38805 -0.72249,0.59619 -1.16875,0.59619"
       style="fill:#231f20;fill-opacity:1;fill-rule:nonzero;stroke:none;stroke-width:0.0352778"
       id="path2229" />
    <path
       d="m 165.08528,161.46336 c -0.514,0 -1.01141,-0.27516 -1.27212,-0.75847 l -1.68416,-3.12561 c -0.37747,-0.70203 -0.115,-1.58045 0.58667,-1.95792 0.70203,-0.37394 1.57727,-0.11289 1.95545,0.58914 l 1.68381,3.12561 c 0.37782,0.70203 0.115,1.57692 -0.58667,1.95439 -0.21767,0.11642 -0.45191,0.17286 -0.68298,0.17286"
       style="fill:#231f20;fill-opacity:1;fill-rule:nonzero;stroke:none;stroke-width:0.0352778"
       id="path2231" />
    <path
       d="m 171.21797,163.14964 c -0.17216,0 -0.34714,-0.0318 -0.51753,-0.0988 -0.74401,-0.28575 -1.11513,-1.1183 -0.82938,-1.86266 l 0.60149,-1.56634 c 0.28575,-0.74436 1.11972,-1.11478 1.86513,-0.82903 0.74401,0.28575 1.11514,1.12184 0.82939,1.8662 l -0.60149,1.5628 c -0.22049,0.57503 -0.76729,0.92781 -1.34761,0.92781"
       style="fill:#231f20;fill-opacity:1;fill-rule:nonzero;stroke:none;stroke-width:0.0352778"
       id="path2233" />
    <path
       d="m 177.95532,163.38953 c -0.45755,0 -0.9077,-0.21872 -1.18816,-0.62442 l -1.08232,-1.5628 c -0.45367,-0.65617 -0.29034,-1.55223 0.36513,-2.00731 0.65581,-0.45508 1.55469,-0.28928 2.00836,0.36336 l 1.08267,1.56634 c 0.45368,0.65263 0.28999,1.55222 -0.36547,2.0073 -0.25048,0.17286 -0.53693,0.25753 -0.82021,0.25753"
       style="fill:#231f20;fill-opacity:1;fill-rule:nonzero;stroke:none;stroke-width:0.0352778"
       id="path2235" />
    <path
       d="m 185.65081,158.4577 c -0.2166,0 -0.43674,-0.0494 -0.64417,-0.1517 l -1.9244,-0.96308 c -0.71297,-0.35631 -1.00224,-1.22414 -0.64594,-1.93675 0.35666,-0.71261 1.22343,-1.00189 1.93675,-0.64559 l 1.9244,0.96309 c 0.71297,0.3563 1.00225,1.22061 0.64559,1.93675 -0.25259,0.50447 -0.76271,0.79728 -1.29223,0.79728"
       style="fill:#231f20;fill-opacity:1;fill-rule:nonzero;stroke:none;stroke-width:0.0352778"
       id="path2237" />
    <path
       d="m 190.4112,152.94378 c -0.78952,0 -1.5674,-0.127 -2.3114,-0.37395 -3.84175,-1.29116 -4.98722,-5.207 -5.10505,-5.64797 -0.98919,-3.70769 1.00012,-6.83683 1.90147,-8.01158 1.34197,-1.74625 2.05775,-1.74625 2.36326,-1.74625 0.21237,0 0.43885,0.0494 0.63147,0.14111 0.34784,0.16228 0.63006,0.47625 0.75883,0.83961 0.2233,0.62795 -0.0162,1.12536 -0.29352,1.70039 -0.46919,0.97719 -1.44533,3.00567 -0.82514,4.99181 0.45402,1.45344 1.78999,3.03388 3.23956,3.16088 1.07703,0.0952 2.13218,-0.70202 3.82093,-1.96497 0.97085,-0.72319 1.8609,-1.5628 2.64513,-2.49766 0.4251,-0.50448 1.14053,-0.6597 1.73496,-0.37042 0.59478,0.28928 0.91758,0.94544 0.78317,1.59103 -0.22931,1.10772 -1.25871,4.87186 -4.8768,6.90033 -0.62865,0.35278 -2.29588,1.28764 -4.46687,1.28764"
       style="fill:#231f20;fill-opacity:1;fill-rule:nonzero;stroke:none;stroke-width:0.0352778"
       id="path2239" />
    <path
       d="m 93.20575,203.99425 3.758495,0.13406 c 0.407811,-0.91017 0.875947,-1.79564 1.396647,-2.64231 1.164519,-1.89794 2.211568,-2.97392 3.135488,-3.91936 0.77717,-0.79728 1.44851,-1.48872 2.17664,-2.60703 0.90699,-1.397 2.14877,-3.30905 2.17276,-5.72558 0.0134,-1.3582 -0.3556,-2.17311 -0.82268,-3.1997 -0.56832,-1.25236 -1.2125,-2.67052 -1.10031,-5.03413 0.0529,-1.11831 0.16333,-3.4537 1.71767,-5.59153 0.93592,-1.28764 1.95792,-1.90147 2.77918,-2.39536 0.77047,-0.46567 1.15359,-0.71261 1.43299,-1.25942 0.29704,-0.58208 0.35913,-1.3335 0.18697,-2.24719 -2.83986,1.651 -5.57918,3.42194 -8.16292,5.27755 -2.278949,1.63689 -3.444174,2.65995 -3.489683,3.70417 -0.01905,0.43039 0.135467,0.70555 0.627945,1.51341 0.3302,0.54328 0.741539,1.21709 1.167698,2.15195 0.52281,1.14653 1.72155,4.11691 1.57127,6.93208 -0.1457,2.73403 -1.52682,4.35328 -3.125965,6.23006 -1.220964,1.42875 -2.604559,3.05152 -4.020609,5.68325 -0.521052,0.96661 -0.989894,1.9685 -1.401586,2.99508 z m 4.70147,3.05506 c -0.01693,0 -0.03457,0 -0.05186,0 l -6.735656,-0.23989 c -0.453249,-0.0176 -0.872279,-0.24342 -1.131923,-0.61736 -0.259468,-0.37042 -0.329353,-0.84314 -0.188101,-1.27353 0.59697,-1.82386 1.359288,-3.60539 2.265892,-5.28814 1.561747,-2.89983 3.116791,-4.7237 4.36633,-6.18772 1.462617,-1.7145 2.345619,-2.75167 2.439458,-4.51203 0.0949,-1.778 -0.617361,-4.04636 -1.315508,-5.57742 -0.354189,-0.77964 -0.700617,-1.34761 -1.006475,-1.84855 -0.568325,-0.93134 -1.1049,-1.81328 -1.046339,-3.14325 0.106892,-2.44475 2.011186,-3.99697 4.689122,-5.91961 3.1429,-2.26131 6.50805,-4.39561 10.0016,-6.34295 0.36407,-0.20461 0.79763,-0.23989 1.18992,-0.0988 0.39229,0.13759 0.70485,0.44098 0.8569,0.82903 0.9719,2.47297 1.03329,4.572 0.18309,6.23711 -0.6671,1.30528 -1.64853,1.89795 -2.51425,2.42006 -0.72001,0.43392 -1.34231,0.80786 -1.93428,1.62278 -1.04633,1.4358 -1.12324,3.05858 -1.16875,4.02872 -0.079,1.66864 0.34925,2.61055 0.8449,3.70064 0.51612,1.13594 1.10067,2.42358 1.08127,4.42383 -0.0325,3.25614 -1.66405,5.76792 -2.63843,7.26722 -0.88335,1.36172 -1.72085,2.21897 -2.53047,3.05153 -0.89817,0.92075 -1.74625,1.79211 -2.7425,3.41489 -0.61277,0.99483 -1.141586,2.05317 -1.571975,3.14325 -0.218369,0.55033 -0.751416,0.91017 -1.341966,0.91017"
       style="fill:#231f20;fill-opacity:1;fill-rule:nonzero;stroke:none;stroke-width:0.0352778"
       id="path2241" />
    <path
       d="m 103.91961,179.14458 c -0.27481,0 -0.5528,-0.0776 -0.79904,-0.23988 l -2.88678,-1.92617 c -0.663223,-0.44097 -0.842434,-1.33703 -0.400404,-2.00025 0.442034,-0.66322 1.337384,-0.84314 2.001664,-0.40217 l 2.88678,1.92617 c 0.66322,0.44097 0.84243,1.33703 0.4004,2.00025 -0.27799,0.41628 -0.73589,0.64205 -1.20262,0.64205"
       style="fill:#231f20;fill-opacity:1;fill-rule:nonzero;stroke:none;stroke-width:0.0352778"
       id="path2243" />
    <path
       d="m 107.2897,176.25886 c -0.55281,0 -1.08056,-0.32103 -1.31974,-0.85725 l -0.96238,-2.16605 c -0.3235,-0.72673 0.005,-1.58045 0.73307,-1.905 0.72849,-0.32103 1.5815,0.007 1.90535,0.73377 l 0.96203,2.16606 c 0.32385,0.72672 -0.004,1.58044 -0.73272,1.905 -0.1905,0.0847 -0.38982,0.12347 -0.58561,0.12347"
       style="fill:#231f20;fill-opacity:1;fill-rule:nonzero;stroke:none;stroke-width:0.0352778"
       id="path2245" />
    <path
       d="m 100.55411,184.67967 c -0.556329,0 -1.085849,-0.32456 -1.323268,-0.86431 -0.319264,-0.73378 0.01341,-1.58397 0.744008,-1.90147 l 3.84881,-1.68628 c 0.72954,-0.3175 1.58115,0.0141 1.90112,0.74436 0.31926,0.73025 -0.0134,1.58045 -0.74401,1.90148 l -3.84881,1.68275 c -0.18838,0.0847 -0.38453,0.12347 -0.57785,0.12347"
       style="fill:#231f20;fill-opacity:1;fill-rule:nonzero;stroke:none;stroke-width:0.0352778"
       id="path2247" />
    <path
       d="m 101.51402,189.48803 c -0.72954,0 -1.35573,-0.55034 -1.43369,-1.29117 -0.08361,-0.79375 0.49142,-1.50283 1.28411,-1.5875 l 4.57059,-0.47978 c 0.80045,-0.0847 1.50319,0.49389 1.58644,1.28411 0.0836,0.79375 -0.49142,1.50284 -1.28411,1.5875 l -4.57059,0.47978 c -0.0515,0.007 -0.10266,0.007 -0.15275,0.007"
       style="fill:#231f20;fill-opacity:1;fill-rule:nonzero;stroke:none;stroke-width:0.0352778"
       id="path2249" />
    <path
       d="m 104.88269,195.50289 c -0.19332,0 -0.38981,-0.0388 -0.57785,-0.11995 l -3.84915,-1.68627 c -0.730254,-0.3175 -1.063276,-1.1677 -0.743659,-1.89795 0.319969,-0.73025 1.171929,-1.06539 1.901119,-0.74436 l 3.84881,1.68275 c 0.7306,0.32103 1.06327,1.17122 0.744,1.90147 -0.23742,0.54328 -0.76729,0.86431 -1.32327,0.86431"
       style="fill:#231f20;fill-opacity:1;fill-rule:nonzero;stroke:none;stroke-width:0.0352778"
       id="path2251" />
    <path
       d="m 100.79259,200.55467 c -0.21661,0 -0.43674,-0.0494 -0.64417,-0.1517 l -3.848809,-1.92264 c -0.712964,-0.35983 -1.002241,-1.22414 -0.645936,-1.93675 0.357011,-0.71261 1.223081,-1.00189 1.936397,-0.64558 l 3.849158,1.92264 c 0.71296,0.3563 1.00224,1.22414 0.64594,1.93675 -0.2533,0.50447 -0.76306,0.79728 -1.29258,0.79728"
       style="fill:#231f20;fill-opacity:1;fill-rule:nonzero;stroke:none;stroke-width:0.0352778"
       id="path2253" />
    <path
       d="m 97.665214,204.40347 c -0.216605,0 -0.437092,-0.0494 -0.644172,-0.15169 l -3.367969,-1.68275 c -0.712964,-0.35631 -1.001889,-1.22414 -0.645231,-1.93675 0.356306,-0.71261 1.223081,-1.00189 1.936397,-0.64559 l 3.36797,1.68275 c 0.712963,0.35631 1.001888,1.22414 0.64523,1.93675 -0.252589,0.50448 -0.762705,0.79728 -1.292225,0.79728"
       style="fill:#231f20;fill-opacity:1;fill-rule:nonzero;stroke:none;stroke-width:0.0352778"
       id="path2255" />
    <path
       d="m 101.87632,214.26714 c -0.43568,0 -0.85725,-0.19756 -1.13559,-0.55386 -0.886883,-1.12889 -1.830563,-2.22956 -2.804935,-3.27025 -1.128184,-1.2065 -1.333148,-1.29822 -1.455561,-1.35114 -0.286456,-0.127 -0.601134,-0.1905 -0.961673,-0.1905 -0.959202,0 -1.951919,0.45155 -2.428875,0.66675 -2.15586,0.97719 -3.369239,2.55058 -4.021031,3.39372 -0.423898,0.55033 -0.823948,1.06892 -1.606656,1.06892 -0.285256,0 -0.583353,-0.0882 -0.820632,-0.24695 -0.26998,-0.17991 -0.716597,-0.60677 -0.673593,-1.44991 0.05803,-1.13948 1.434006,-5.08353 5.130164,-7.04145 0.696172,-0.36689 2.548785,-1.22061 4.720132,-1.22061 1.582561,0 3.011664,0.4445 4.24744,1.31939 3.68688,2.61761 3.26708,7.37306 3.24732,7.57414 -0.0575,0.58561 -0.46637,1.0795 -1.03222,1.2453 -0.13371,0.0388 -0.26953,0.0565 -0.40429,0.0565"
       style="fill:#231f20;fill-opacity:1;fill-rule:nonzero;stroke:none;stroke-width:0.0352778"
       id="path2257" />
    <path
       d="m 124.93987,130.75406 c -2.69451,0 -5.0927,0.66322 -7.12716,1.97555 -3.78602,2.43417 -4.74063,4.93184 -4.87504,6.59695 -0.37289,4.62844 4.953,8.32908 7.82144,9.63789 1.83479,0.83961 3.84527,1.26294 5.97535,1.26294 2.14277,0 3.81317,-0.42333 4.61574,-0.62794 3.31717,-0.83962 5.5312,-2.49062 7.67221,-4.0887 2.82963,-2.10608 4.08728,-3.08328 4.2478,-4.11339 0.43039,-2.7693 -4.88527,-6.53697 -8.79757,-8.32908 -3.34822,-1.53458 -6.55567,-2.31422 -9.53277,-2.31422 z m 1.79459,22.36258 v 0 c -2.54706,0 -4.96112,-0.51506 -7.1755,-1.52753 -3.76344,-1.71803 -9.99949,-6.2865 -9.4989,-12.49186 0.18662,-2.31775 1.41217,-5.72205 6.1909,-8.79828 2.5079,-1.61219 5.43136,-2.43063 8.68891,-2.43063 3.39514,0 7.00688,0.8643 10.73538,2.57527 1.16735,0.5327 11.37991,5.3975 10.44752,11.39472 -0.34855,2.24367 -2.13395,3.57364 -5.37528,5.99017 -2.25636,1.67922 -4.81435,3.58775 -8.68609,4.56847 -0.84526,0.2152 -2.82328,0.71967 -5.32694,0.71967"
       style="fill:#231f20;fill-opacity:1;fill-rule:nonzero;stroke:none;stroke-width:0.0352778"
       id="path2259" />
    <path
       d="M 132.90877,146.66786 H 123.527 c -0.79728,0 -1.44357,-0.64558 -1.44357,-1.44286 0,-0.79728 0.64629,-1.44286 1.44357,-1.44286 h 9.38177 c 0.79728,0 1.44357,0.64558 1.44357,1.44286 0,0.79728 -0.64629,1.44286 -1.44357,1.44286"
       style="fill:#231f20;fill-opacity:1;fill-rule:nonzero;stroke:none;stroke-width:0.0352778"
       id="path2261" />
    <path
       d="m 133.74803,139.25247 3.88126,0.14111 -0.073,-1.24177 -3.92007,-0.28928 c -0.003,0.0564 -0.005,0.11289 -0.006,0.17286 -0.007,0.40922 0.0325,0.81492 0.11783,1.21708 z m 5.41549,3.08681 c -0.0176,0 -0.0356,0 -0.0533,0 l -6.49534,-0.23989 c -0.57397,-0.0212 -1.08091,-0.381 -1.29046,-0.91722 -0.40393,-1.03011 -0.59937,-2.10609 -0.58032,-3.19617 0.0116,-0.68792 0.10971,-1.3723 0.29069,-2.03905 0.18132,-0.66675 0.81068,-1.11831 1.49965,-1.06187 l 6.495,0.48331 c 0.72143,0.0529 1.29187,0.63147 1.3342,1.35467 l 0.2406,4.08869 c 0.024,0.4057 -0.12489,0.80433 -0.40923,1.09361 -0.27199,0.2787 -0.64417,0.43392 -1.03152,0.43392"
       style="fill:#231f20;fill-opacity:1;fill-rule:nonzero;stroke:none;stroke-width:0.0352778"
       id="path2263" />
    <path
       d="m 120.24546,137.41803 0.0603,0.97014 3.61597,-0.26811 -0.0603,-0.97014 z m -1.28905,3.95817 c -0.34784,0 -0.68509,-0.12348 -0.94862,-0.35631 -0.29104,-0.25047 -0.46813,-0.61031 -0.49212,-0.99483 l -0.2406,-3.84881 c -0.0494,-0.79022 0.54575,-1.47108 1.33385,-1.53105 l 6.49535,-0.47978 c 0.38453,-0.0318 0.76447,0.0952 1.05516,0.34925 0.29104,0.254 0.46813,0.61383 0.49212,0.99836 l 0.2406,3.8488 c 0.049,0.79023 -0.54575,1.47109 -1.33421,1.53106 l -6.49499,0.47978 c -0.0356,0.004 -0.0713,0.004 -0.10654,0.004"
       style="fill:#231f20;fill-opacity:1;fill-rule:nonzero;stroke:none;stroke-width:0.0352778"
       id="path2265" />
    <path
       d="m 136.0365,132.7155 c -0.38594,0 -0.77117,-0.15169 -1.05551,-0.45861 -0.54399,-0.58208 -0.51259,-1.49578 0.0705,-2.03905 l 10.82499,-10.10356 c 0.58244,-0.54328 1.49578,-0.51153 2.04011,0.0706 0.54399,0.58208 0.51259,1.49577 -0.0705,2.03905 l -10.82499,10.10356 c -0.27834,0.26105 -0.63182,0.38805 -0.9846,0.38805"
       style="fill:#231f20;fill-opacity:1;fill-rule:nonzero;stroke:none;stroke-width:0.0352778"
       id="path2267" />
    <path
       d="m 148.66206,120.67167 c 0.0519,0.0141 0.14817,0.0353 0.2921,0.0353 0.45297,0 1.00895,-0.18698 1.3836,-0.45861 0.79939,-0.58914 1.09431,-1.72862 0.95991,-1.9932 0.003,0.0141 -0.11748,-0.0318 -0.35031,-0.0318 -0.38206,0 -0.84032,0.127 -1.16734,0.32808 -0.86149,0.52917 -1.22026,1.7392 -1.11796,2.1202 z m 0.2921,2.921 c -1.00753,0 -1.87466,-0.34572 -2.44228,-0.97367 -0.6096,-0.67733 -0.85901,-1.64747 -0.70167,-2.73403 0.22048,-1.524 1.18745,-3.01625 2.46274,-3.79588 0.78317,-0.47978 1.75789,-0.75495 2.67441,-0.75495 1.04739,0 1.94627,0.36689 2.53118,1.03364 0.56338,0.64206 0.81456,1.53811 0.70696,2.52589 -0.15169,1.39347 -0.99165,2.83633 -2.13995,3.67947 -0.86959,0.63853 -2.02529,1.01953 -3.09139,1.01953"
       style="fill:#231f20;fill-opacity:1;fill-rule:nonzero;stroke:none;stroke-width:0.0352778"
       id="path2269" />
    <path
       d="m 119.91985,131.51606 c -0.46638,0 -0.92393,-0.22578 -1.20227,-0.64559 l -5.77356,-8.66069 c -0.44203,-0.66322 -0.26282,-1.55928 0.4004,-2.00025 0.66322,-0.44097 1.55963,-0.26106 2.00166,0.39864 l 5.77321,8.66069 c 0.44238,0.66323 0.26317,1.55928 -0.40005,2.00378 -0.24588,0.16228 -0.52423,0.24342 -0.79939,0.24342"
       style="fill:#231f20;fill-opacity:1;fill-rule:nonzero;stroke:none;stroke-width:0.0352778"
       id="path2271" />
    <path
       d="m 112.60077,117.0945 c -0.96062,0 -1.78541,0.64206 -1.84891,0.9772 -0.0674,0.35277 0.58243,1.19591 1.45027,1.48872 0.25435,0.0882 0.53481,0.13758 0.76905,0.13758 0.15769,0 0.37324,-0.0212 0.50342,-0.127 0.16968,-0.14111 0.33549,-0.51153 0.32385,-1.03364 -0.0127,-0.53622 -0.21837,-1.04069 -0.51224,-1.25941 -0.20602,-0.1517 -0.48648,-0.18345 -0.68544,-0.18345 z m 0.37041,5.48922 c -0.55139,0 -1.137,-0.0988 -1.69333,-0.28575 -1.92934,-0.65263 -3.76273,-2.65994 -3.36197,-4.76602 0.39088,-2.05317 2.73614,-3.32317 4.68489,-3.32317 0.9084,0 1.73954,0.25753 2.40312,0.74789 1.01917,0.75494 1.64712,2.0708 1.68028,3.51367 0.0318,1.37936 -0.47413,2.59291 -1.38748,3.33727 -0.62371,0.508 -1.42804,0.77611 -2.32551,0.77611"
       style="fill:#231f20;fill-opacity:1;fill-rule:nonzero;stroke:none;stroke-width:0.0352778"
       id="path2273" />
    <path
       d="m 110.89121,145.37317 c -1.15888,0 -2.52166,-0.254 -3.80436,-1.11478 -3.26249,-2.18369 -3.74121,-6.72747 -2.14136,-9.59908 0.4826,-0.86431 1.90112,-2.92806 4.64044,-3.36903 2.72238,-0.43392 4.71452,1.06539 5.26062,1.53458 0.60396,0.52211 0.67169,1.43228 0.15134,2.03553 -0.51999,0.60678 -1.43087,0.67381 -2.03553,0.15169 -0.21872,-0.18697 -1.38782,-1.11477 -2.91853,-0.87136 -1.49189,0.23989 -2.2987,1.42523 -2.57633,1.92617 -0.95497,1.71097 -0.6858,4.51203 1.22625,5.79614 1.67534,1.12183 3.76132,0.40922 3.99345,0.32455 0.74859,-0.27516 1.57727,0.10937 1.85102,0.85725 0.27411,0.75142 -0.11112,1.58045 -0.85972,1.85209 -0.3302,0.11994 -1.41605,0.47625 -2.78729,0.47625"
       style="fill:#231f20;fill-opacity:1;fill-rule:nonzero;stroke:none;stroke-width:0.0352778"
       id="path2275" />
    <path
       d="m 147.68169,144.40303 c -1.02446,0 -2.06128,-0.26458 -3.00072,-0.82197 -0.6851,-0.40923 -0.91088,-1.2947 -0.50412,-1.97909 0.4071,-0.68439 1.29293,-0.91016 1.97802,-0.50447 1.39594,0.82903 3.2124,0.39864 4.04777,-0.95603 0.89077,-1.44991 0.20003,-3.26319 -1.00365,-4.04989 -1.29469,-0.84666 -3.10056,-0.55386 -4.11127,0.67028 -0.50765,0.61736 -1.41711,0.70203 -2.032,0.19403 -0.61454,-0.508 -0.70168,-1.41464 -0.19403,-2.032 1.96497,-2.37772 5.36893,-2.91747 7.91704,-1.24883 2.67053,1.74625 3.51508,5.32341 1.88277,7.9763 -1.08937,1.77095 -3.01131,2.75167 -4.97981,2.75167"
       style="fill:#231f20;fill-opacity:1;fill-rule:nonzero;stroke:none;stroke-width:0.0352778"
       id="path2277" />
    <path
       d="m 118.68689,172.43828 0.43039,0.0953 -0.0998,-2.28953 h -0.38523 z m 1.95333,3.3408 c -0.1009,0 -0.20214,-0.0106 -0.30233,-0.0353 l -3.36797,-0.71967 c -0.65229,-0.14111 -1.12395,-0.70908 -1.14053,-1.37583 l -0.1203,-4.81189 c -0.01,-0.38806 0.13794,-0.76553 0.40958,-1.04422 0.27164,-0.2787 0.64452,-0.43392 1.03328,-0.43392 h 3.24767 c 0.77294,0 1.40829,0.60678 1.44216,1.37936 l 0.23319,5.36575 c 0.012,0.0741 0.0183,0.15169 0.0183,0.22931 0,0.79727 -0.64629,1.44638 -1.44357,1.44638 -0.004,0 -0.006,0 -0.01,0"
       style="fill:#231f20;fill-opacity:1;fill-rule:nonzero;stroke:none;stroke-width:0.0352778"
       id="path2279" />
    <path
       d="m 127.13521,169.43614 v 2.80458 l 1.3268,-0.14816 -0.23672,-2.72698 z m -1.44321,5.85964 c -0.35349,0 -0.69639,-0.13053 -0.96273,-0.36689 -0.30586,-0.27517 -0.48049,-0.66675 -0.48049,-1.07597 v -5.77497 c 0,-0.762 0.59267,-1.38995 1.35326,-1.43934 l 3.84916,-0.23989 c 0.7874,-0.0459 1.45979,0.53623 1.52788,1.31586 l 0.48119,5.53156 c 0.0677,0.78317 -0.49989,1.47461 -1.27882,1.55928 l -4.33,0.4833 c -0.0533,0.004 -0.10654,0.007 -0.15945,0.007"
       style="fill:#231f20;fill-opacity:1;fill-rule:nonzero;stroke:none;stroke-width:0.0352778"
       id="path2281" />
    <path
       d="m 129.83043,179.63495 0.46673,3.59833 1.36348,-0.23989 -0.13405,-3.6195 z m -0.77046,6.72747 c -0.30516,0 -0.60537,-0.0952 -0.85478,-0.2787 -0.3175,-0.23636 -0.526,-0.58914 -0.5768,-0.98072 l -0.84172,-6.49464 c -0.1009,-0.77611 0.43709,-1.49225 1.21179,-1.61219 l 4.69088,-0.71967 c 0.40711,-0.0635 0.82127,0.0494 1.13912,0.31397 0.31715,0.26106 0.50765,0.64559 0.52282,1.05834 l 0.24059,6.49464 c 0.0265,0.71966 -0.48224,1.35113 -1.19168,1.47461 l -4.0894,0.72319 c -0.0832,0.0141 -0.16757,0.0212 -0.25082,0.0212"
       style="fill:#231f20;fill-opacity:1;fill-rule:nonzero;stroke:none;stroke-width:0.0352778"
       id="path2283" />
    <path
       d="m 120.88081,183.80831 0.72179,0.0494 v -2.54706 h -0.72179 z m 2.165,3.03388 c -0.0321,0 -0.0642,0 -0.096,-0.004 l -3.60857,-0.23989 c -0.75847,-0.0494 -1.34726,-0.68086 -1.34726,-1.43934 v -5.29166 c 0,-0.79728 0.64629,-1.44286 1.44322,-1.44286 h 3.60856 c 0.79728,0 1.44357,0.64558 1.44357,1.44286 v 5.53155 c 0,0.39864 -0.16581,0.78317 -0.45756,1.05481 -0.26846,0.25047 -0.62088,0.38805 -0.98601,0.38805"
       style="fill:#231f20;fill-opacity:1;fill-rule:nonzero;stroke:none;stroke-width:0.0352778"
       id="path2285" />
    <path
       d="m 138.6721,218.41228 3.68406,0.70908 c 0.2921,-0.81139 0.5207,-1.64042 0.68227,-2.48003 0.23072,-1.19591 0.93169,-4.83658 -0.63429,-8.5478 -0.85655,-2.032 -2.12831,-3.47134 -3.60116,-5.13997 -0.83185,-0.94192 -1.3977,-1.45698 -1.85208,-1.87325 -0.59866,-0.54328 -1.07103,-0.97367 -1.4852,-1.80623 -0.88688,-1.78152 -0.80327,-3.95816 0.26635,-6.58636 -0.44379,0.20814 -0.89288,0.4057 -1.34408,0.5962 -1.86055,3.22791 -2.39254,5.89844 -1.58115,7.94102 0.40075,1.00895 0.99589,1.55575 1.81963,2.3107 0.56268,0.51505 1.20085,1.10067 1.82703,1.905 2.3622,3.03742 3.10692,7.39422 2.21862,12.97164 z m 4.58153,3.79236 c -0.0903,0 -0.18168,-0.007 -0.27305,-0.0247 l -6.25475,-1.20297 c -0.37783,-0.0741 -0.7112,-0.2928 -0.92569,-0.61383 -0.21484,-0.3175 -0.29281,-0.70908 -0.21661,-1.08656 1.08726,-5.40808 0.61348,-9.46502 -1.40793,-12.06147 -0.47802,-0.61383 -0.97473,-1.06892 -1.50072,-1.55222 -0.93733,-0.86078 -1.90641,-1.74978 -2.55094,-3.37256 -1.19556,-3.01272 -0.51258,-6.67808 2.02953,-10.90083 0.16122,-0.26458 0.40464,-0.47272 0.69392,-0.59267 0.69991,-0.28222 1.39876,-0.59266 2.07856,-0.92427 1.26612,-0.61031 2.50931,-1.30881 3.695,-2.07787 0.57609,-0.37041 1.33385,-0.28575 1.81363,0.20462 0.47978,0.48683 0.54963,1.2453 0.16651,1.8168 -2.49026,3.69711 -3.37255,6.52286 -2.55129,8.17033 0.16616,0.33514 0.32385,0.48684 0.84561,0.96309 0.47943,0.43391 1.13594,1.03364 2.07186,2.0955 1.57198,1.778 3.05647,3.46075 4.09681,5.92666 1.90641,4.51909 1.08056,8.80534 0.80892,10.21645 -0.27411,1.42169 -0.71155,2.82222 -1.29893,4.15572 -0.23389,0.5327 -0.75706,0.86078 -1.32044,0.86078"
       style="fill:#231f20;fill-opacity:1;fill-rule:nonzero;stroke:none;stroke-width:0.0352778"
       id="path2287" />
    <path
       d="m 134.83423,198.39214 c -0.13123,0 -0.26458,-0.0212 -0.39723,-0.0565 l -1.6838,-0.4833 c -0.76624,-0.21872 -1.21038,-1.016 -0.99166,-1.78153 0.21907,-0.76905 1.01776,-1.21003 1.78435,-0.9913 l 1.68381,0.47977 c 0.76623,0.21873 1.21038,1.016 0.99165,1.78506 -0.18132,0.63147 -0.75917,1.04775 -1.38712,1.04775"
       style="fill:#231f20;fill-opacity:1;fill-rule:nonzero;stroke:none;stroke-width:0.0352778"
       id="path2289" />
    <path
       d="m 134.83423,204.64689 c -0.56021,0 -1.0929,-0.32808 -1.3275,-0.87842 -0.31397,-0.73025 0.0254,-1.58044 0.75812,-1.89441 l 3.36797,-1.44287 c 0.73307,-0.31397 1.58115,0.0247 1.89512,0.75848 0.31397,0.73377 -0.0254,1.58044 -0.75812,1.89441 l -3.36797,1.44286 c -0.18521,0.0811 -0.37818,0.11995 -0.56762,0.11995"
       style="fill:#231f20;fill-opacity:1;fill-rule:nonzero;stroke:none;stroke-width:0.0352778"
       id="path2291" />
    <path
       d="m 137.95879,211.14153 c -0.6978,0 -1.31163,-0.508 -1.42382,-1.22061 -0.12417,-0.7867 0.41311,-1.524 1.20051,-1.651 l 4.57094,-0.71967 c 0.78669,-0.127 1.52647,0.41275 1.65065,1.19944 0.12417,0.7867 -0.41311,1.52753 -1.20051,1.651 l -4.57094,0.7232 c -0.0759,0.0106 -0.15205,0.0176 -0.22683,0.0176"
       style="fill:#231f20;fill-opacity:1;fill-rule:nonzero;stroke:none;stroke-width:0.0352778"
       id="path2293" />
    <path
       d="m 142.7735,216.67308 c -0.0501,0 -0.10125,-0.004 -0.15276,-0.007 l -4.57059,-0.48331 c -0.79269,-0.0811 -1.36771,-0.79375 -1.28446,-1.58397 0.0836,-0.79375 0.79058,-1.37231 1.58644,-1.28411 l 4.57094,0.47978 c 0.7927,0.0847 1.36772,0.79375 1.28412,1.5875 -0.078,0.74083 -0.70415,1.29116 -1.43369,1.29116"
       style="fill:#231f20;fill-opacity:1;fill-rule:nonzero;stroke:none;stroke-width:0.0352778"
       id="path2295" />
    <path
       d="m 107.16975,219.80222 c -0.54045,0 -1.05868,-0.30691 -1.30527,-0.82903 -0.34149,-0.71966 -0.0342,-1.58044 0.68615,-1.91911 1.93604,-0.91722 3.54718,-2.16252 4.7886,-3.69358 1.23614,-1.52753 1.9424,-3.83117 3.34963,-8.41375 0.95109,-3.10092 1.76883,-6.53344 2.36467,-9.93422 0.10336,-0.58914 0.18309,-1.0795 0.23636,-1.41817 0.12453,-0.78669 0.86466,-1.32644 1.651,-1.19944 0.78705,0.12347 1.32468,0.86077 1.2005,1.651 -0.055,0.34925 -0.13758,0.85725 -0.24447,1.46755 -0.61631,3.51367 -1.46262,7.06614 -2.44758,10.27642 -1.51729,4.94594 -2.27823,7.42597 -3.86644,9.38742 -1.51589,1.86972 -3.46604,3.37961 -5.79614,4.4838 -0.19967,0.0952 -0.40993,0.14111 -0.61701,0.14111"
       style="fill:#231f20;fill-opacity:1;fill-rule:nonzero;stroke:none;stroke-width:0.0352778"
       id="path2297" />
    <path
       d="m 115.58915,221.72486 c -0.13476,0 -0.27199,-0.0176 -0.40746,-0.06 -0.76482,-0.22225 -1.20262,-1.02658 -0.97825,-1.78858 0.65405,-2.22956 1.39382,-4.44853 2.19815,-6.59695 1.20545,-3.21733 1.81011,-4.83305 2.97745,-6.93208 0.85231,-1.53106 1.46544,-2.35656 1.95862,-3.01978 0.48084,-0.64558 0.77117,-1.03717 1.08268,-1.84856 0.72637,-1.88383 0.78845,-4.10633 0.18485,-6.59694 -0.18768,-0.77611 0.28857,-1.55575 1.06327,-1.74272 0.7747,-0.18697 1.55505,0.28928 1.74237,1.06186 0.74436,3.07269 0.64453,5.87022 -0.29633,8.31497 -0.45297,1.17828 -0.91934,1.80622 -1.45944,2.53295 -0.46567,0.62794 -0.99378,1.33702 -1.75366,2.70227 -1.06186,1.90853 -1.64112,3.45723 -2.79541,6.53698 -0.78105,2.08844 -1.49825,4.24038 -2.13254,6.39938 -0.18521,0.63148 -0.76024,1.03717 -1.3843,1.03717"
       style="fill:#231f20;fill-opacity:1;fill-rule:nonzero;stroke:none;stroke-width:0.0352778"
       id="path2299" />
    <path
       d="m 123.76795,200.55467 c -0.14394,0 -0.29069,-0.0212 -0.43498,-0.067 l -4.57059,-1.44286 c -0.76023,-0.23989 -1.18216,-1.05128 -0.94191,-1.80975 0.24024,-0.762 1.05163,-1.18534 1.81116,-0.94192 l 4.57059,1.44286 c 0.76023,0.23989 1.1818,1.05128 0.94156,1.80975 -0.19438,0.61736 -0.76271,1.00895 -1.37583,1.00895"
       style="fill:#231f20;fill-opacity:1;fill-rule:nonzero;stroke:none;stroke-width:0.0352778"
       id="path2301" />
    <path
       d="m 121.12141,207.7725 c -0.36936,0 -0.73872,-0.14111 -1.02059,-0.42333 l -3.36797,-3.36903 c -0.56374,-0.56092 -0.56374,-1.47461 0,-2.03906 0.56339,-0.56444 1.47708,-0.56444 2.04117,0 l 3.36797,3.3655 c 0.56374,0.56445 0.56374,1.47814 0,2.04259 -0.28187,0.28222 -0.65122,0.42333 -1.02058,0.42333"
       style="fill:#231f20;fill-opacity:1;fill-rule:nonzero;stroke:none;stroke-width:0.0352778"
       id="path2303" />
    <path
       d="m 118.47522,211.38142 h -3.36797 c -0.79692,0 -1.44321,-0.64559 -1.44321,-1.44286 0,-0.79728 0.64629,-1.44639 1.44321,-1.44639 h 3.36797 c 0.79693,0 1.44322,0.64911 1.44322,1.44639 0,0.79727 -0.64629,1.44286 -1.44322,1.44286"
       style="fill:#231f20;fill-opacity:1;fill-rule:nonzero;stroke:none;stroke-width:0.0352778"
       id="path2305" />
    <path
       d="m 115.82939,216.67308 c -0.39793,0 -0.7941,-0.16227 -1.07915,-0.4833 l -1.9244,-2.16606 c -0.52952,-0.59619 -0.47625,-1.50989 0.11959,-2.03905 0.59549,-0.52917 1.50813,-0.47625 2.03764,0.11994 l 1.92476,2.16606 c 0.52952,0.59619 0.4759,1.50989 -0.11994,2.03905 -0.27482,0.24342 -0.61737,0.36336 -0.9585,0.36336"
       style="fill:#231f20;fill-opacity:1;fill-rule:nonzero;stroke:none;stroke-width:0.0352778"
       id="path2307" />
  </g>
</svg>
