<?xml version="1.0" encoding="UTF-8" standalone="no"?>
<svg
   xmlns:dc="http://purl.org/dc/elements/1.1/"
   xmlns:cc="http://creativecommons.org/ns#"
   xmlns:rdf="http://www.w3.org/1999/02/22-rdf-syntax-ns#"
   xmlns:svg="http://www.w3.org/2000/svg"
   xmlns="http://www.w3.org/2000/svg"
   xmlns:sodipodi="http://sodipodi.sourceforge.net/DTD/sodipodi-0.dtd"
   xmlns:inkscape="http://www.inkscape.org/namespaces/inkscape"
   width="93.398468mm"
   height="112.57908mm"
   viewBox="0 0 93.398468 112.57908"
   version="1.1"
   id="svg3219"
   inkscape:version="1.0.2 (e86c8708, 2021-01-15)"
   sodipodi:docname="robo1.svg">
  <defs
     id="defs3213" />
  <sodipodi:namedview
     id="base"
     pagecolor="#ffffff"
     bordercolor="#666666"
     borderopacity="1.0"
     inkscape:pageopacity="0.0"
     inkscape:pageshadow="2"
     inkscape:zoom="0.35"
     inkscape:cx="273.64393"
     inkscape:cy="315.60489"
     inkscape:document-units="mm"
     inkscape:current-layer="layer1"
     inkscape:document-rotation="0"
     showgrid="false"
     inkscape:window-width="1440"
     inkscape:window-height="874"
     inkscape:window-x="0"
     inkscape:window-y="26"
     inkscape:window-maximized="0"
     fit-margin-top="0"
     fit-margin-left="0"
     fit-margin-right="0"
     fit-margin-bottom="0" />
  <metadata
     id="metadata3216">
    <rdf:RDF>
      <cc:Work
         rdf:about="">
        <dc:format>image/svg+xml</dc:format>
        <dc:type
           rdf:resource="http://purl.org/dc/dcmitype/StillImage" />
        <dc:title></dc:title>
      </cc:Work>
    </rdf:RDF>
  </metadata>
  <g
     inkscape:label="Ebene 1"
     inkscape:groupmode="layer"
     id="layer1"
     transform="translate(-33.431709,-64.662872)">
    <g
       id="g2001"
       transform="matrix(0.04137836,0,0,-0.04137836,7.4509874,739.13014)">
      <path
         d="m 1154.99,15470.6 h 961.2 v 759.6 h -961.2 z m 996.08,-69.8 H 1120.11 c -19.26,0 -34.88,15.6 -34.88,34.9 v 829.4 c 0,19.3 15.62,34.9 34.88,34.9 h 1030.96 c 19.27,0 34.89,-15.6 34.89,-34.9 v -829.4 c 0,-19.3 -15.62,-34.9 -34.89,-34.9"
         style="fill:#231f20;fill-opacity:1;fill-rule:nonzero;stroke:none"
         id="path2003" />
    </g>
    <g
       id="g2005"
       transform="matrix(0.04063224,0,0,-0.04063224,7.4509874,739.13014)">
      <path
         d="m 2226.11,16157.3 h 69.07 v 65.1 l -69.07,3.9 z m 104.59,-71 h -140.12 c -19.61,0 -35.52,15.9 -35.52,35.5 v 142.1 c 0,9.8 4.02,19.1 11.12,25.8 7.1,6.7 16.61,10.3 26.41,9.7 l 140.12,-7.9 c 18.81,-1.1 33.52,-16.6 33.52,-35.5 v -134.2 c 0,-19.6 -15.9,-35.5 -35.53,-35.5"
         style="fill:#231f20;fill-opacity:1;fill-rule:nonzero;stroke:none"
         id="path2007" />
    </g>
    <g
       id="g2009"
       transform="matrix(0.04063083,0,0,-0.04063083,7.4509874,739.13014)">
      <path
         d="M 992.709,16157.9 H 1105.2 v 71.1 H 992.709 Z m 148.021,-71 H 957.188 c -19.62,0 -35.527,15.9 -35.527,35.5 v 142.1 c 0,19.6 15.907,35.5 35.527,35.5 h 183.542 c 19.61,0 35.52,-15.9 35.52,-35.5 v -142.1 c 0,-19.6 -15.91,-35.5 -35.52,-35.5"
         style="fill:#231f20;fill-opacity:1;fill-rule:nonzero;stroke:none"
         id="path2011" />
    </g>
    <g
       id="g2013"
       transform="matrix(0.04096808,0,0,-0.04096808,7.4509874,739.13014)">
      <path
         d="m 914.99,16218.8 c -53.674,-18 -98.055,-52.4 -125.041,-97.9 -22.187,-37.4 -29.187,-77.8 -18.736,-108.1 16.418,-47.6 77.711,-83.3 149.932,-89.3 z m 27.457,-366.6 c -112.094,0 -209.9,56.6 -237.842,137.6 -17.373,50.4 -8.362,111.3 24.737,167.1 44.047,74.3 122.074,125.8 214.061,141.4 10.138,1.7 20.461,-1 28.349,-7.6 7.898,-6.5 12.553,-16.2 12.768,-26.4 l 7.831,-375.8 c 0.393,-19.1 -14.461,-35 -33.506,-35.9 -5.496,-0.3 -10.972,-0.4 -16.398,-0.4"
         style="fill:#231f20;fill-opacity:1;fill-rule:nonzero;stroke:none"
         id="path2015" />
    </g>
    <g
       id="g2017"
       transform="matrix(0.04097831,0,0,-0.04097831,7.4509874,739.13014)">
      <path
         d="m 2353.92,16217.8 c -6.28,-78 -7.57,-156.6 -3.81,-234.3 1.5,-31.1 3.83,-62.3 6.95,-93.5 61.33,24.3 106.55,77.7 114.73,139.4 10.48,79.3 -40.45,157 -117.87,188.4 z m -27.25,-408.2 c -7.43,0 -14.73,2.3 -20.8,6.8 -7.85,5.7 -12.97,14.4 -14.16,24.1 -5.69,46.2 -9.71,93.2 -11.96,139.6 -4.61,95.3 -1.92,191.9 7.98,287.1 1.02,9.8 6.09,18.7 14,24.6 7.91,5.9 17.92,8.2 27.59,6.4 133.99,-25.4 229.23,-150.1 212.3,-278 -13.68,-103.4 -99.42,-189.7 -208.5,-210 -2.14,-0.4 -4.3,-0.6 -6.45,-0.6"
         style="fill:#231f20;fill-opacity:1;fill-rule:nonzero;stroke:none"
         id="path2019" />
    </g>
    <g
       id="g2021"
       transform="matrix(0.03928533,0,0,-0.03928533,7.4509874,739.13014)">
      <path
         d="m 1638.72,15846.9 h 243.82 c -2.61,51.4 -5.02,103.3 -7.2,154.6 -3.16,74.7 -5.89,150.2 -8.15,225 h -240.63 c 13.61,-55 22.06,-111.3 25.19,-167.9 3.93,-70.8 -0.46,-141.9 -13.03,-211.7 z m 282.52,-73.5 h -327.6 c -11.21,0 -21.81,5.1 -28.78,13.9 -6.96,8.7 -9.55,20.2 -7.01,31.1 18.01,77.5 24.93,157 20.53,236.1 -3.71,67.1 -15.55,133.7 -35.19,198 -3.41,11.2 -1.32,23.3 5.61,32.6 6.93,9.4 17.89,14.9 29.53,14.9 h 324.54 c 19.89,0 36.17,-15.8 36.72,-35.7 2.44,-86.1 5.52,-173.5 9.17,-259.7 2.71,-63.9 5.79,-128.7 9.17,-192.5 0.53,-10.1 -3.1,-20 -10.03,-27.3 -6.94,-7.3 -16.58,-11.4 -26.66,-11.4"
         style="fill:#231f20;fill-opacity:1;fill-rule:nonzero;stroke:none"
         id="path2023" />
    </g>
    <g
       id="g2025"
       transform="matrix(0.04075924,0,0,-0.04075924,7.4509874,739.13014)">
      <path
         d="m 1373.9,16225.7 -5.2,-137.7 136.97,2.6 2.6,137.6 z m -42,-209.2 c -9.5,0 -18.62,3.8 -25.27,10.6 -6.83,6.9 -10.48,16.4 -10.12,26.1 l 7.87,208.6 c 0.71,18.7 15.93,33.7 34.7,34 l 204.61,4 c 9.45,0.2 18.91,-3.6 25.72,-10.4 6.81,-6.8 10.55,-16.1 10.36,-25.7 l -3.93,-208.5 c -0.36,-19.1 -15.7,-34.4 -34.74,-34.8 l -208.53,-3.9 c -0.23,0 -0.45,0 -0.67,0"
         style="fill:#231f20;fill-opacity:1;fill-rule:nonzero;stroke:none"
         id="path2027" />
    </g>
    <g
       id="g2029"
       transform="matrix(0.04082838,0,0,-0.04082838,7.4509874,739.13014)">
      <path
         d="m 1889.03,16060 h 131.94 v 167.6 l -142.95,-5.2 z m 167.29,-70.7 h -200.33 c -18.6,0 -34.01,14.4 -35.27,33 l -15.71,231.7 c -0.65,9.6 2.6,19 9.01,26.1 6.4,7.1 15.42,11.3 24.97,11.7 l 216.05,7.8 c 9.61,0.4 18.91,-3.2 25.82,-9.9 6.91,-6.6 10.81,-15.8 10.81,-25.4 v -239.6 c 0,-19.5 -15.82,-35.4 -35.35,-35.4"
         style="fill:#231f20;fill-opacity:1;fill-rule:nonzero;stroke:none"
         id="path2031" />
    </g>
    <g
       id="g2033"
       transform="matrix(0.03829191,0,0,-0.03829191,7.4509874,739.13014)">
      <path
         d="m 1316.82,16190.7 c -0.67,-104.3 0.85,-209.6 4.54,-313.6 4.32,-121.5 11.72,-244.4 22.02,-365.9 9.71,0.1 20.49,0.1 32.13,0.2 180.66,1.6 314.88,15.8 412.89,26.2 25.2,2.7 48.36,5.1 69.76,7.1 133.23,12.5 272.61,13.7 415.29,3.8 -1.86,12.5 -3.6,25.1 -5.22,37.6 -17.33,133.9 -21.76,281.2 -12.81,426 4.23,68.3 11.54,137.3 21.79,205.6 -100.84,-11.7 -202.93,-21 -304.15,-27.7 -84.9,-5.7 -190.58,-12.7 -326.46,-12.7 h -6.98 c -106.99,0.2 -215.39,4.7 -322.8,13.4 z m 25.36,-754.8 c -13.47,0 -24.88,0 -33.7,0.1 -19.38,0.2 -35.48,15 -37.21,34.3 -11.97,133.9 -20.47,269.8 -25.25,404.1 -4.21,118.7 -5.63,239.1 -4.21,357.8 0.13,10.5 4.64,20.5 12.45,27.6 7.8,7 18.2,10.4 28.67,9.5 118.46,-10.8 238.52,-16.4 356.83,-16.6 h 6.84 c 133.39,0 237.67,6.9 321.46,12.5 116.51,7.7 234.14,18.9 349.66,33.3 11.84,1.5 23.67,-2.7 31.92,-11.4 8.23,-8.6 11.9,-20.6 9.87,-32.4 -14.04,-81.8 -23.75,-165 -28.84,-247.2 -8.66,-140.1 -4.41,-282.5 12.32,-411.7 3.57,-27.5 7.72,-55.2 12.34,-82.2 1.97,-11.6 -1.51,-23.3 -9.41,-31.9 -7.92,-8.6 -19.46,-13 -30.99,-12 -154.53,13.3 -306.1,13.4 -449.76,0 -21.12,-2 -43.97,-4.4 -68.81,-7.1 -99.55,-10.5 -235.88,-25 -420.2,-26.6 -12.35,-0.1 -23.77,-0.1 -33.98,-0.1"
         style="fill:#231f20;fill-opacity:1;fill-rule:nonzero;stroke:none"
         id="path2035" />
    </g>
    <g
       id="g2037"
       transform="matrix(0.03630507,0,0,-0.03630507,7.4509874,739.13014)">
      <path
         d="m 1643.18,16118.6 c 102.93,-7.5 206.69,-7.9 308.98,-1.3 43.89,2.8 88.19,7 132.15,12.5 l -7,86.5 c -65.24,-4.5 -131.05,-8.1 -196.18,-10.5 -77.37,-3 -155.85,-4.5 -233.37,-4.6 z m 163.7,-85.5 c -69.4,0 -139.75,3.2 -209.09,9.4 -21.36,1.9 -37.34,20.4 -36.16,41.8 l 8.84,159 c 1.16,21.1 18.6,37.5 39.68,37.5 0.08,0 0.14,0 0.21,0 88.23,-0.4 178.9,1.1 267.77,4.4 77.29,3 155.56,7.4 232.62,13.2 21.94,1.6 40.85,-14.6 42.62,-36.4 l 13.26,-163.5 c 1.7,-21 -13.24,-39.6 -34.08,-42.6 -58.03,-8.1 -117,-14.2 -175.28,-17.9 -49.82,-3.2 -100.42,-4.9 -150.39,-4.9"
         style="fill:#231f20;fill-opacity:1;fill-rule:nonzero;stroke:none"
         id="path2039" />
    </g>
    <g
       id="g2041"
       transform="matrix(0.03653896,0,0,-0.03653896,7.4509874,739.13014)">
      <path
         d="m 1639.35,16192 v -5.7 l 424.02,11.1 -0.88,20.6 z m -39.51,-85.7 c -10.28,0 -20.18,4 -27.57,11.2 -7.62,7.4 -11.93,17.6 -11.93,28.3 v 83.4 c 0,20.8 16.24,38.1 37.08,39.4 l 500.36,30.7 c 10.6,0.7 20.98,-3 28.85,-10.1 7.87,-7.1 12.57,-17 13.04,-27.6 l 4.38,-101 c 0.46,-10.5 -3.35,-20.9 -10.57,-28.6 -7.23,-7.8 -17.27,-12.3 -27.87,-12.6 l -504.74,-13.1 c -0.35,0 -0.69,0 -1.03,0"
         style="fill:#231f20;fill-opacity:1;fill-rule:nonzero;stroke:none"
         id="path2043" />
    </g>
    <g
       id="g2045"
       transform="matrix(0.0358588,0,0,-0.0358588,7.4509874,739.13014)">
      <path
         d="m 1510.65,16136.2 780.94,-57.2 18.68,120.1 c -167.63,7.2 -337.03,12.5 -504.25,15.9 -98.88,2.1 -198.81,3.5 -297.67,4.2 z m 815.03,-140.3 c -0.98,0 -1.97,0 -2.98,0.1 l -854.23,62.6 c -20.6,1.5 -36.71,18.4 -37.29,39 l -4.47,161 c -0.31,10.9 3.84,21.5 11.46,29.3 7.58,7.7 17.96,12.1 28.78,12.1 0.08,0 0.15,0 0.24,0 112.75,-0.6 227.31,-2.2 340.48,-4.5 182.81,-3.7 368.21,-9.8 551.07,-17.9 11.43,-0.5 22.11,-5.9 29.36,-14.7 7.25,-8.9 10.38,-20.4 8.62,-31.7 l -31.3,-201.3 c -3.06,-19.7 -20.06,-34 -39.74,-34"
         style="fill:#231f20;fill-opacity:1;fill-rule:nonzero;stroke:none"
         id="path2047" />
    </g>
    <g
       id="g2049"
       transform="matrix(0.03546404,0,0,-0.03546404,7.4509874,739.13014)">
      <path
         d="m 1372.3,16166.6 435.44,-5.7 v 44.6 l -428.96,11.6 z m 476.14,-87.6 c -0.18,0 -0.35,0 -0.53,0 l -522.31,6.8 c -11.6,0.1 -22.59,5.2 -30.2,14 -7.6,8.7 -11.11,20.3 -9.64,31.8 l 16.96,132.3 c 2.66,20.7 20.32,36.1 41.46,35.5 l 505.35,-13.6 c 22.05,-0.6 39.61,-18.6 39.61,-40.6 v -125.5 c 0,-10.9 -4.36,-21.3 -12.1,-29 -7.62,-7.5 -17.9,-11.7 -28.6,-11.7"
         style="fill:#231f20;fill-opacity:1;fill-rule:nonzero;stroke:none"
         id="path2051" />
    </g>
    <path
       d="m 55.655953,173.2746 15.175794,0.40216 0.09666,-4.3568 -14.976827,-0.67381 z m 16.586552,3.32669 c -0.0127,0 -0.02575,0 -0.03845,0 l -18.122194,-0.47978 c -0.391937,-0.0106 -0.762706,-0.17991 -1.027289,-0.46919 -0.264584,-0.28928 -0.399697,-0.67381 -0.375003,-1.06539 l 0.481189,-7.53886 c 0.05009,-0.7867 0.726016,-1.38995 1.505303,-1.35114 l 17.801871,0.80433 c 0.78352,0.0353 1.395589,0.68792 1.37795,1.47109 l -0.160514,7.21783 c -0.0085,0.38453 -0.169686,0.74789 -0.447674,1.01247 -0.268817,0.25753 -0.625123,0.39864 -0.995187,0.39864"
       style="fill:#231f20;fill-opacity:1;fill-rule:nonzero;stroke:none;stroke-width:0.0352778"
       id="path2053" />
    <g
       id="g2055"
       transform="matrix(0.03538361,0,0,-0.03538361,7.4509874,739.13014)">
      <path
         d="m 2048.68,16205.5 v -243.2 l 376.21,7.5 v 220.4 c -124.28,20.6 -250.83,25.8 -376.21,15.3 z m -40.8,-325.6 c -10.66,0 -20.92,4.2 -28.55,11.7 -7.82,7.7 -12.23,18.2 -12.23,29.1 v 321.8 c 0,20.9 15.69,38.3 36.4,40.6 156.1,16.9 315.27,10.5 469.74,-18.6 19.28,-3.7 33.22,-20.5 33.22,-40.1 v -294.6 c 0,-22.2 -17.77,-40.4 -39.98,-40.8 l -457.78,-9.1 c -0.27,0 -0.54,0 -0.82,0"
         style="fill:#231f20;fill-opacity:1;fill-rule:nonzero;stroke:none"
         id="path2057" />
    </g>
    <path
       d="m 92.610483,169.93026 c -0.006,0 -0.01199,0 -0.01834,0 l -12.990336,-0.15875 c -0.796925,-0.0106 -1.435452,-0.66675 -1.425574,-1.46402 0.0099,-0.79728 0.651933,-1.43934 1.461205,-1.42523 l 12.990336,0.16228 c 0.797278,0.0106 1.435453,0.66322 1.425575,1.4605 -0.0099,0.79022 -0.65405,1.42522 -1.442861,1.42522"
       style="fill:#231f20;fill-opacity:1;fill-rule:nonzero;stroke:none;stroke-width:0.0352778"
       id="path2059" />
    <path
       d="m 80.100277,173.71557 c -0.789163,0 -1.432983,-0.635 -1.442861,-1.42522 -0.0092,-0.79728 0.629356,-1.45345 1.426281,-1.4605 l 13.471525,-0.16228 c 0.795866,0.004 1.450622,0.62794 1.4605,1.42875 0.0095,0.79375 -0.629003,1.44992 -1.426281,1.45697 l -13.471525,0.16228 c -0.0056,0 -0.01164,0 -0.01764,0"
       style="fill:#231f20;fill-opacity:1;fill-rule:nonzero;stroke:none;stroke-width:0.0352778"
       id="path2061" />
    <path
       d="m 71.321403,173.15465 c -0.02646,0 -0.05327,0 -0.08008,-0.004 l -16.117711,-0.88194 c -0.795866,-0.0423 -1.405466,-0.72319 -1.362075,-1.52047 0.04375,-0.79375 0.728839,-1.40053 1.52012,-1.36172 l 16.117711,0.88194 c 0.795866,0.0459 1.405819,0.72319 1.362075,1.52047 -0.04198,0.76906 -0.678745,1.36525 -1.440039,1.36525"
       style="fill:#231f20;fill-opacity:1;fill-rule:nonzero;stroke:none;stroke-width:0.0352778"
       id="path2063" />
    <g
       id="g2065"
       transform="matrix(0.03907296,0,0,-0.03907296,7.4509874,739.13014)">
      <path
         d="m 1721.33,16189.1 c -20.51,0 -41.02,1.2 -61.38,3.7 -20.26,2.4 -34.7,20.8 -32.26,41.1 2.45,20.2 20.9,34.6 41.1,32.2 34.87,-4.2 70.22,-4.2 105.05,0 36.25,4.4 71.91,13.3 106.01,26.5 18.99,7.4 40.41,-2 47.79,-21.1 7.37,-19 -2.08,-40.4 -21.09,-47.8 -39.84,-15.4 -81.51,-25.8 -123.86,-30.9 -20.35,-2.5 -40.85,-3.7 -61.36,-3.7"
         style="fill:#231f20;fill-opacity:1;fill-rule:nonzero;stroke:none"
         id="path2067" />
    </g>
    <g
       id="g2069"
       transform="matrix(0.03877063,0,0,-0.03877063,7.4509874,739.13014)">
      <path
         d="m 1916.23,16203 c -4.73,0 -9.52,0.9 -14.16,2.8 -25.02,10.3 -50.62,16.4 -76.09,18 -22.98,1.5 -42.19,-0.9 -66.49,-3.9 -21.53,-2.7 -43.1,-6.6 -64.1,-11.7 -19.99,-4.8 -40.1,7.5 -44.92,27.5 -4.81,20 7.48,40.1 27.46,44.9 23.73,5.7 48.09,10.2 72.41,13.2 25.92,3.2 50.41,6.2 80.37,4.3 33.6,-2.1 67.15,-10 99.7,-23.4 19.01,-7.8 28.08,-29.6 20.26,-48.6 -5.93,-14.4 -19.81,-23.1 -34.44,-23.1"
         style="fill:#231f20;fill-opacity:1;fill-rule:nonzero;stroke:none"
         id="path2071" />
    </g>
    <g
       id="g2073"
       transform="matrix(0.03850534,0,0,-0.03850534,7.4509874,739.13014)">
      <path
         d="m 1689.97,16189.8 c -14.78,0 -28.79,8.8 -34.72,23.3 -7.82,19.2 1.38,41 20.55,48.9 33.78,13.7 67.98,21.7 101.66,23.5 15.76,0.9 28.32,0.3 40.43,-0.3 13.89,-0.6 27.01,-1.3 46.11,0.3 18.94,1.5 37.82,4.6 56.13,9.3 20.08,5.2 40.47,-6.9 45.62,-27 5.15,-20 -6.93,-40.5 -26.98,-45.6 -22.46,-5.8 -45.61,-9.6 -68.82,-11.5 -23.87,-1.9 -40.72,-1.1 -55.6,-0.4 -11.18,0.6 -20.85,1 -32.8,0.4 -25.34,-1.4 -51.39,-7.5 -77.43,-18.2 -4.64,-1.8 -9.43,-2.7 -14.15,-2.7"
         style="fill:#231f20;fill-opacity:1;fill-rule:nonzero;stroke:none"
         id="path2075" />
    </g>
    <g
       id="g2077"
       transform="matrix(0.03979474,0,0,-0.03979474,7.4509874,739.13014)">
      <path
         d="m 1442.21,16226.8 5.18,-131.7 511.65,10.6 -4.95,114 z m -29.68,-205 c -19.43,0 -35.47,15.3 -36.23,34.8 l -8.07,205.6 c -0.39,9.9 3.33,19.6 10.28,26.7 6.95,7.1 16.19,11.1 26.47,11 l 584.36,-8.1 c 19.22,-0.3 34.9,-15.5 35.73,-34.7 l 8.06,-185.4 c 0.42,-9.7 -3.11,-19.2 -9.78,-26.4 -6.68,-7.1 -15.95,-11.2 -25.71,-11.4 l -584.36,-12.1 c -0.24,0 -0.5,0 -0.75,0"
         style="fill:#231f20;fill-opacity:1;fill-rule:nonzero;stroke:none"
         id="path2079" />
    </g>
    <g
       id="g2081"
       transform="matrix(0.03969914,0,0,-0.03969914,7.4509874,739.13014)">
      <path
         d="m 1561.34,16096.8 c -19.04,0 -35.05,14.8 -36.25,34.1 l -8.08,129.3 c -1.26,20 13.97,37.3 34.02,38.5 19.89,1.3 37.29,-14 38.54,-34 l 8.09,-129.3 c 1.26,-20 -13.98,-37.3 -34.02,-38.5 -0.77,-0.1 -1.53,-0.1 -2.3,-0.1"
         style="fill:#231f20;fill-opacity:1;fill-rule:nonzero;stroke:none"
         id="path2083" />
    </g>
    <g
       id="g2085"
       transform="matrix(0.03972913,0,0,-0.03972913,7.4509874,739.13014)">
      <path
         d="m 1701.48,16088.6 c -0.25,0 -0.5,0 -0.75,0 -20.06,0.4 -35.99,17 -35.58,37.1 0.37,18.3 0.37,36.8 0,55 -0.55,26.1 -1.86,52.6 -3.94,78.6 -1.59,20 13.34,37.5 33.34,39.1 19.97,1.6 37.5,-13.3 39.1,-33.3 2.18,-27.5 3.57,-55.3 4.14,-82.9 0.4,-19.2 0.4,-38.7 0,-58 -0.41,-19.8 -16.58,-35.6 -36.31,-35.6"
         style="fill:#231f20;fill-opacity:1;fill-rule:nonzero;stroke:none"
         id="path2087" />
    </g>
    <g
       id="g2089"
       transform="matrix(0.03973442,0,0,-0.03973442,7.4509874,739.13014)">
      <path
         d="m 1834.41,16074.4 c -16.51,0 -31.44,11.3 -35.34,28.1 -4.79,20.6 -7.8,41.7 -8.97,62.8 -1.89,34.4 1.12,69.1 8.95,103 4.52,19.5 24.07,31.7 43.58,27.2 19.54,-4.5 31.73,-24 27.21,-43.6 -6.29,-27.2 -8.71,-55 -7.19,-82.7 0.93,-16.8 3.34,-33.7 7.17,-50.2 4.56,-19.6 -7.61,-39.1 -27.15,-43.6 -2.77,-0.7 -5.53,-1 -8.26,-1"
         style="fill:#231f20;fill-opacity:1;fill-rule:nonzero;stroke:none"
         id="path2091" />
    </g>
    <g
       id="g2093"
       transform="matrix(0.03793419,0,0,-0.03793419,7.4509874,739.13014)">
      <path
         d="m 2401.34,16119.6 c 53.84,-6.2 105.85,-20 155.1,-41.2 28.64,-12.3 81.98,-35.3 137.48,-86.1 31.91,-29.3 59.17,-62.7 81.39,-99.8 l 80.56,44.7 c -23.19,56.6 -69.76,138.6 -158.98,202.1 -98.21,69.9 -201.22,84.6 -270.36,84.6 -5.97,0 -11.83,-0.1 -17.63,-0.3 z m 358.83,-317.1 c -3.85,0 -7.72,0.6 -11.46,1.8 -9.97,3.1 -18.21,10.2 -22.77,19.6 -20.73,42.8 -48.8,80.5 -83.42,112.2 -46.01,42.2 -89.94,61.1 -116.19,72.4 -52.56,22.7 -108.89,35.5 -167.41,38.2 -10.26,0.4 -19.9,5 -26.71,12.7 -6.83,7.7 -10.25,17.8 -9.51,28.1 l 12.69,174.4 c 1.33,18.2 15.54,33 33.77,35 18.88,2.1 37.63,3.1 57.37,3.1 80.23,0 199.91,-17.1 314.5,-98.7 123.94,-88.3 177.23,-206.8 197.96,-269.6 5.73,-17.3 -1.69,-36.3 -17.65,-45.1 l -142.69,-79.3 c -5.71,-3.2 -12.08,-4.8 -18.48,-4.8"
         style="fill:#231f20;fill-opacity:1;fill-rule:nonzero;stroke:none"
         id="path2095" />
    </g>
    <g
       id="g2097"
       transform="matrix(0.03782907,0,0,-0.03782907,7.4509874,739.13014)">
      <path
         d="m 2510.3,16110.3 c -10.47,0 -20.91,4.3 -28.44,12.7 -14.06,15.7 -12.72,39.8 2.98,53.9 7.86,7 15.42,14.5 22.46,22.4 19.33,21.6 35.43,46.2 47.81,73.2 8.8,19.1 31.48,27.5 50.61,18.7 19.14,-8.8 27.53,-31.5 18.72,-50.6 -15.58,-33.9 -35.85,-64.9 -60.28,-92.2 -8.91,-9.9 -18.48,-19.5 -28.43,-28.4 -7.28,-6.5 -16.37,-9.7 -25.43,-9.7"
         style="fill:#231f20;fill-opacity:1;fill-rule:nonzero;stroke:none"
         id="path2099" />
    </g>
    <g
       id="g2101"
       transform="matrix(0.03745653,0,0,-0.03745653,7.4509874,739.13014)">
      <path
         d="m 2702.2,16148.5 c -18.23,0 -34.43,13 -37.85,31.5 -3.87,21 9.96,41.1 30.9,44.9 21.96,4.1 43.11,11.4 62.8,21.9 19.09,10.1 36.55,22.9 51.89,38.2 15.1,15 39.49,14.9 54.5,-0.2 15,-15 14.93,-39.4 -0.16,-54.5 -20.74,-20.6 -44.33,-38 -70.14,-51.6 -26.65,-14.2 -55.21,-24.1 -84.91,-29.6 -2.36,-0.4 -4.71,-0.6 -7.03,-0.6"
         style="fill:#231f20;fill-opacity:1;fill-rule:nonzero;stroke:none"
         id="path2103" />
    </g>
    <g
       id="g2105"
       transform="matrix(0.03704907,0,0,-0.03704907,7.4509874,739.13014)">
      <path
         d="m 2871.58,15930 c -11.19,0 -22.31,4.8 -30.01,14.1 -12.6,15.2 -74.18,96 -48.26,193.9 29.08,109.8 143.77,162 236.82,155.5 112.29,-7.9 174.63,-97.5 185.98,-115.3 11.54,-18.2 6.17,-42.3 -11.99,-53.8 -18.16,-11.6 -42.24,-6.2 -53.78,12 -4.8,7.5 -49.14,74 -125.69,79.4 -62.88,4.5 -138.31,-30.9 -156.02,-97.7 -16.48,-62.3 27.81,-118.1 32.91,-124.3 13.74,-16.5 11.45,-41.1 -5.11,-54.8 -7.28,-6 -16.09,-9 -24.85,-9"
         style="fill:#231f20;fill-opacity:1;fill-rule:nonzero;stroke:none"
         id="path2107" />
    </g>
    <g
       id="g2109"
       transform="matrix(0.03701732,0,0,-0.03701732,7.4509874,739.13014)">
      <path
         d="m 1091.76,16011.9 c -21.18,0 -38.55,16.9 -38.98,38.2 -1.04,51.9 -23.63,100 -62,131.8 -30.592,25.4 -68.203,37.3 -100.541,31.9 -56.51,-9.4 -104.041,-69.8 -110.567,-140.5 -1.981,-21.5 -21.037,-37.3 -42.405,-35.3 -21.446,2 -37.227,21 -35.246,42.4 9.827,106.6 83.577,195 175.371,210.4 55.207,9.2 114.684,-8.6 163.188,-48.9 55.81,-46.3 88.68,-115.6 90.18,-190.3 0.42,-21.5 -16.68,-39.3 -38.21,-39.7 -0.27,0 -0.53,0 -0.79,0"
         style="fill:#231f20;fill-opacity:1;fill-rule:nonzero;stroke:none"
         id="path2111" />
    </g>
    <g
       id="g2113"
       transform="matrix(0.03790139,0,0,-0.03790139,7.4509874,739.13014)">
      <path
         d="m 894.478,15927.9 c 25.214,-6.9 49.407,-16.7 72.288,-29.3 4.708,25.1 13.86,52 30.13,78.3 36.554,59.2 89.944,83.8 132.834,103.5 36.3,16.6 74.73,27.9 114.71,33.5 l -14.31,108 c -11.7,1.3 -23.74,1.9 -35.72,1.9 -42.87,0 -106.7,-8.5 -167.24,-48.9 -107.994,-72.2 -128.929,-192.2 -132.692,-247 z m 107.312,-138.1 c -9.057,0 -18.026,3.2 -25.131,9.4 -13.663,12 -28.563,22.6 -44.296,31.4 -25.712,14.4 -53.687,24.4 -83.152,29.6 -17.547,3 -30.621,17.9 -31.45,35.7 -0.429,9.1 -8.461,225 167.101,342.3 76.418,51.1 156.138,61.8 209.548,61.8 26.23,0 52.92,-2.6 77.2,-7.4 15.97,-3.2 28.13,-16.2 30.27,-32.4 l 23.27,-175.6 c 1.41,-10.6 -1.7,-21.3 -8.56,-29.4 -6.86,-8.2 -16.85,-13.1 -27.51,-13.6 -45.01,-2 -87.92,-12.2 -127.54,-30.4 -38.77,-17.9 -75.38,-34.7 -99.85,-74.3 -23.25,-37.6 -24.81,-78 -22.02,-105.2 1.59,-15.5 -6.51,-30.5 -20.43,-37.7 -5.52,-2.8 -11.5,-4.2 -17.45,-4.2"
         style="fill:#231f20;fill-opacity:1;fill-rule:nonzero;stroke:none"
         id="path2115" />
    </g>
    <g
       id="g2117"
       transform="matrix(0.03780225,0,0,-0.03780225,7.4509874,739.13014)">
      <path
         d="m 1135.95,16090 c -11.11,0 -22.12,4.8 -29.67,14.1 -19.72,24.3 -35.32,51.4 -46.35,80.5 -8.62,22.7 -14.37,46.6 -17.1,70.8 -2.36,21 12.72,39.9 33.67,42.2 20.84,2.4 39.85,-12.7 42.22,-33.7 2.01,-17.9 6.25,-35.4 12.61,-52.2 8.15,-21.5 19.67,-41.5 34.25,-59.5 13.28,-16.4 10.78,-40.4 -5.58,-53.7 -7.09,-5.7 -15.6,-8.5 -24.05,-8.5"
         style="fill:#231f20;fill-opacity:1;fill-rule:nonzero;stroke:none"
         id="path2119" />
    </g>
    <g
       id="g2121"
       transform="matrix(0.03738104,0,0,-0.03738104,7.4509874,739.13014)">
      <path
         d="m 1028.63,16170.3 c -2.72,0 -5.47,0.3 -8.24,0.9 -20.76,4.5 -41.172,11.1 -60.662,19.4 -21.319,9.2 -41.738,20.6 -60.679,34 -17.415,12.3 -21.551,36.4 -9.239,53.8 12.306,17.5 36.419,21.6 53.819,9.3 14.543,-10.3 30.207,-19.1 46.571,-26.1 14.97,-6.4 30.65,-11.4 46.59,-14.9 20.84,-4.5 34.06,-25.1 29.53,-45.9 -3.92,-18.1 -19.92,-30.5 -37.69,-30.5"
         style="fill:#231f20;fill-opacity:1;fill-rule:nonzero;stroke:none"
         id="path2123" />
    </g>
    <g
       id="g2125"
       transform="matrix(0.03789997,0,0,-0.03789997,7.4509874,739.13014)">
      <path
         d="m 1454.63,16177.8 67.03,-1.5 -3.41,42 -63.78,3 c -0.77,-14.4 -0.72,-29 0.16,-43.5 z m 108.39,-78.6 c -0.28,0 -0.55,0 -0.85,0 l -142.81,3.2 c -18.6,0.4 -34.18,14.2 -36.84,32.6 -4.82,33.4 -5.98,67.2 -3.45,100.4 0.79,10.4 1.95,20.9 3.46,31.2 2.85,19.4 19.94,33.4 39.49,32.5 l 133.3,-6.3 c 19.11,-0.9 34.59,-15.9 36.15,-35 l 9.51,-117.4 c 0.88,-10.8 -2.86,-21.4 -10.25,-29.2 -7.2,-7.7 -17.23,-12 -27.71,-12"
         style="fill:#231f20;fill-opacity:1;fill-rule:nonzero;stroke:none"
         id="path2127" />
    </g>
    <g
       id="g2129"
       transform="matrix(0.0378654,0,0,-0.0378654,7.4509874,739.13014)">
      <path
         d="m 1683.46,16179.7 60.9,-1.3 -4.24,40.3 c -24.71,-2 -44.69,-3.2 -60.4,-3.4 1.58,-11.6 2.83,-23.4 3.74,-35.6 z m 103.6,-78.5 c -0.09,0 -0.17,0 -0.26,0 -0.29,0 -0.57,0 -0.86,0 l -139.77,3.2 c -20.44,0.4 -36.88,16.9 -37.25,37.4 -0.44,24.8 -2.43,48.7 -5.9,71 l -0.55,3.5 c -4.32,27.2 -10.24,64.5 23.92,77.3 4.3,1.6 9.71,2.6 14.3,2.6 4.7,0 11.28,-0.8 18.45,-4.3 2.23,-0.2 6.42,-0.5 13.52,-0.5 20.58,0 53.46,2.2 97.75,6.5 20.89,2.1 39.41,-13.1 41.6,-33.9 l 12.25,-116.3 c 0.59,-2.7 0.92,-5.5 0.92,-8.4 0,-21.1 -17.07,-38.1 -38.12,-38.1"
         style="fill:#231f20;fill-opacity:1;fill-rule:nonzero;stroke:none"
         id="path2131" />
    </g>
    <g
       id="g2133"
       transform="matrix(0.04055216,0,0,-0.04055216,7.4509874,739.13014)">
      <path
         d="m 1435.97,16238.4 c 1.4,-2.1 3.69,-4.6 7.03,-6.6 3.15,-1.9 6.68,-3 9.69,-3 3.98,0 6.02,4 7.03,7.3 1.19,3.8 0.76,7.3 0.15,9.2 -2.31,0.7 -8.28,1.1 -13.45,-0.5 -4.77,-1.6 -8.27,-4.1 -10.45,-6.4 z m 18.36,-63.5 c -18.56,0 -39.04,11.4 -52.16,29.2 -11.99,16.2 -15.82,35.5 -10.51,52.8 8.68,28.3 37.27,43.1 61.03,43.1 9.78,0 19.07,-2.5 26.88,-7.1 19.07,-11.5 28.56,-34.8 25.39,-62.5 -3.09,-27 -16.81,-47 -36.71,-53.4 -4.43,-1.4 -9.12,-2.1 -13.92,-2.1"
         style="fill:#231f20;fill-opacity:1;fill-rule:nonzero;stroke:none"
         id="path2135" />
    </g>
    <g
       id="g2137"
       transform="matrix(0.04059943,0,0,-0.04059943,7.4509874,739.13014)">
      <path
         d="m 1978.75,16231.6 c 2.53,-1.7 4.78,-2.4 6.03,-2.6 0.29,0.2 0.64,0.6 1.02,1.1 0.02,0 0.04,0 0.06,0.1 -1.92,0.7 -4.3,1.2 -7.11,1.4 z m -1.54,-71.1 c -0.21,0 -0.55,0 -0.76,0 -24.12,0.4 -42.41,20.4 -51.47,38.8 -12.63,25.8 -11.19,53.2 3.84,73.3 12.61,16.9 34.32,27.4 56.68,27.4 16.32,0 30.81,-5.7 40.8,-16 16.88,-17.4 19.16,-46.2 6.1,-77 -12.51,-29.6 -32.62,-46.5 -55.19,-46.5"
         style="fill:#231f20;fill-opacity:1;fill-rule:nonzero;stroke:none"
         id="path2139" />
    </g>
  </g>
</svg>
