<?xml version="1.0" encoding="UTF-8" standalone="no"?>
<svg
   xmlns:dc="http://purl.org/dc/elements/1.1/"
   xmlns:cc="http://creativecommons.org/ns#"
   xmlns:rdf="http://www.w3.org/1999/02/22-rdf-syntax-ns#"
   xmlns:svg="http://www.w3.org/2000/svg"
   xmlns="http://www.w3.org/2000/svg"
   xmlns:sodipodi="http://sodipodi.sourceforge.net/DTD/sodipodi-0.dtd"
   xmlns:inkscape="http://www.inkscape.org/namespaces/inkscape"
   width="184.62976mm"
   height="128.11478mm"
   viewBox="0 0 184.62976 128.11478"
   version="1.1"
   id="svg4085"
   inkscape:version="1.0.2 (e86c8708, 2021-01-15)"
   sodipodi:docname="robo2.svg">
  <defs
     id="defs4079" />
  <sodipodi:namedview
     id="base"
     pagecolor="#ffffff"
     bordercolor="#666666"
     borderopacity="1.0"
     inkscape:pageopacity="0.0"
     inkscape:pageshadow="2"
     inkscape:zoom="0.35"
     inkscape:cx="386.04946"
     inkscape:cy="230.67809"
     inkscape:document-units="mm"
     inkscape:current-layer="layer1"
     inkscape:document-rotation="0"
     showgrid="false"
     fit-margin-top="0"
     fit-margin-left="0"
     fit-margin-right="0"
     fit-margin-bottom="0"
     inkscape:window-width="1440"
     inkscape:window-height="874"
     inkscape:window-x="0"
     inkscape:window-y="26"
     inkscape:window-maximized="0" />
  <metadata
     id="metadata4082">
    <rdf:RDF>
      <cc:Work
         rdf:about="">
        <dc:format>image/svg+xml</dc:format>
        <dc:type
           rdf:resource="http://purl.org/dc/dcmitype/StillImage" />
        <dc:title></dc:title>
      </cc:Work>
    </rdf:RDF>
  </metadata>
  <g
     inkscape:label="Ebene 1"
     inkscape:groupmode="layer"
     id="layer1"
     transform="translate(-3.6910812,-87.133089)">
    <path
       d="m 40.20603,186.82456 c 9.418461,0 19.010489,0.10936 28.509383,0.32808 12.338755,0.2787 21.74875,0.67734 30.051374,1.02659 9.509473,0.39863 17.722143,0.74436 26.849213,0.74436 3.72251,0 7.43303,-0.0529 11.34392,-0.16934 10.29758,-0.29986 20.78179,-0.9913 31.19085,-2.05669 l -2.38866,-7.88458 c -12.1031,0.0388 -24.36178,0.06 -36.45606,0.06 -12.45235,0 -25.08073,-0.0212 -37.53414,-0.0635 -18.271772,-0.0565 -36.824002,-0.16228 -55.16386,-0.31045 -0.136172,1.5875 -0.08784,3.18206 0.144286,4.75192 0.179211,1.21356 0.468842,2.40947 0.863247,3.57717 0.824795,-0.004 1.688747,-0.004 2.590447,-0.004 z m 85.40997,4.98828 c -9.18775,0 -17.42864,-0.34925 -26.970921,-0.75142 -8.289219,-0.34925 -17.684397,-0.74436 -29.995283,-1.02306 -9.477374,-0.21872 -19.047177,-0.32808 -28.443766,-0.32808 -1.274586,0 -2.47403,0.004 -3.594452,0.007 -0.0014,0 -0.0028,0 -0.0042,0 -0.593372,0 -1.126419,-0.36336 -1.343377,-0.91723 -0.648759,-1.651 -1.108781,-3.37608 -1.367367,-5.12586 -0.334081,-2.26483 -0.334081,-4.56494 0,-6.83683 0.104069,-0.70908 0.712258,-1.23472 1.427692,-1.23472 0.0039,0 0.0081,0 0.01199,0 18.756841,0.15169 37.747574,0.26105 56.444796,0.32103 12.450238,0.0423 25.075448,0.06 37.524968,0.06 12.44918,0 25.07298,-0.0176 37.52109,-0.06 0.001,0 0.003,0 0.005,0 0.63571,0 1.19698,0.41627 1.38148,1.02658 l 3.20745,10.58333 c 0.12453,0.41275 0.0593,0.85725 -0.1785,1.21709 -0.23777,0.3563 -0.62265,0.59266 -1.05057,0.63852 -11.05147,1.17123 -22.20384,1.9297 -33.14736,2.25073 -3.93911,0.11641 -7.67715,0.17286 -11.42823,0.17286"
       style="fill:#231f20;fill-opacity:1;fill-rule:nonzero;stroke:none;stroke-width:0.0352778"
       id="path2141" />
    <path
       d="m 49.436461,174.02225 107.933069,1.87678 v -5.29872 c -2.78801,0.22578 -5.62046,0.39511 -8.44092,0.51153 -2.72133,0.10936 -5.31142,0.1658 -7.9188,0.1658 -6.81002,0 -12.43048,-0.381 -17.86608,-0.75141 -5.32588,-0.35984 -10.83345,-0.73378 -17.39159,-0.73378 -1.21356,0 -2.45251,0.0106 -3.68229,0.0388 -5.95701,0.11995 -12.061124,0.55034 -18.141954,1.27353 -0.438855,0.0494 -0.876653,-0.1023 -1.189567,-0.41275 -0.312561,-0.31044 -0.465313,-0.75142 -0.414513,-1.18886 0.326672,-2.82222 0.225072,-5.58447 -0.301978,-8.20914 -0.332317,-1.65453 -0.71367,-2.67758 -1.13277,-3.04094 -0.452261,-0.39159 -1.071739,-0.57503 -1.951566,-0.57503 -0.947561,0 -2.040467,0.21519 -3.097036,0.42686 -0.269875,0.0529 -0.536575,0.10583 -0.799042,0.15522 -1.328914,0.24695 -2.290233,0.35278 -3.213805,0.35278 -0.815975,0 -1.552223,-0.0811 -2.484614,-0.18697 -1.803047,-0.19756 -4.52755,-0.50095 -10.503606,-0.50095 -1.220258,0 -2.540352,0.0106 -3.922536,0.0353 -2.443691,0.0459 -4.922308,0.127 -7.38893,0.24342 z m 109.376279,4.7872 c -0.008,0 -0.0166,0 -0.025,0 L 48.129419,176.88681 c -0.720725,-0.0141 -1.321505,-0.55386 -1.407936,-1.27 l -2.245431,-18.6055 c -0.04763,-0.39511 0.07126,-0.79375 0.328084,-1.10067 0.257175,-0.30691 0.629708,-0.49036 1.0287,-0.51152 3.006019,-0.15875 6.044494,-0.26812 9.030758,-0.32456 1.400175,-0.0247 2.737908,-0.0388 3.975805,-0.0388 6.135864,0 8.956322,0.31398 10.822517,0.52212 0.876653,0.0988 1.509889,0.16933 2.165703,0.16933 0.7366,0 1.539169,-0.0917 2.684286,-0.30692 0.252941,-0.0459 0.509411,-0.0988 0.769055,-0.14816 1.193095,-0.23637 2.426758,-0.47978 3.656542,-0.47978 1.591733,0 2.847975,0.41628 3.840339,1.27705 0.715786,0.61736 1.463322,1.6122 2.074333,4.65667 0.473428,2.35656 0.639233,4.80836 0.4953,7.30956 5.590116,-0.61384 11.187288,-0.98073 16.663106,-1.09362 1.24954,-0.0247 2.50825,-0.0388 3.74156,-0.0388 6.65621,0 12.21317,0.37747 17.58703,0.74436 5.38762,0.36336 10.95869,0.74083 17.67064,0.74083 2.56752,0 5.11916,-0.0529 7.80133,-0.16227 3.30623,-0.13406 6.62834,-0.34925 9.87425,-0.635 0.40252,-0.0353 0.80327,0.0988 1.10207,0.37394 0.29881,0.27164 0.46885,0.65969 0.46885,1.06186 v 8.33967 c 0,0.38805 -0.15558,0.75847 -0.43145,1.03011 -0.27023,0.26458 -0.63359,0.41275 -1.01212,0.41275"
       style="fill:#231f20;fill-opacity:1;fill-rule:nonzero;stroke:none;stroke-width:0.0352778"
       id="path2143" />
    <path
       d="m 55.209316,172.07492 c -0.742597,0 -1.373716,-0.56797 -1.436864,-1.32292 l -0.64135,-7.69761 c -0.06632,-0.79375 0.523875,-1.49225 1.318684,-1.55927 0.790575,-0.0706 1.491544,0.52563 1.558219,1.31938 l 0.64135,7.69761 c 0.06632,0.79375 -0.523875,1.49225 -1.318331,1.55928 -0.04092,0.004 -0.08149,0.004 -0.121708,0.004"
       style="fill:#231f20;fill-opacity:1;fill-rule:nonzero;stroke:none;stroke-width:0.0352778"
       id="path2145" />
    <path
       d="m 60.022263,172.71698 c -0.796925,0 -1.443214,-0.64559 -1.443214,-1.44287 v -4.81188 c 0,-0.79728 0.646289,-1.44286 1.443214,-1.44286 0.797278,0 1.443567,0.64558 1.443567,1.44286 v 4.81188 c 0,0.79728 -0.646289,1.44287 -1.443567,1.44287"
       style="fill:#231f20;fill-opacity:1;fill-rule:nonzero;stroke:none;stroke-width:0.0352778"
       id="path2147" />
    <path
       d="m 65.868496,146.37859 c -2.34703,0 -4.568824,0.70555 -6.256161,1.98614 -2.410883,1.83444 -3.346802,4.55083 -3.709811,6.36764 l 19.642667,-0.2787 c -0.119592,-1.38994 -0.530578,-3.01625 -1.602317,-4.445 -1.68028,-2.24014 -4.774141,-3.63008 -8.074378,-3.63008 z m -11.619794,11.26419 c -0.395816,0 -0.7747,-0.16228 -1.047397,-0.45155 -0.277636,-0.29281 -0.419805,-0.68792 -0.392642,-1.09009 0.132998,-1.96144 0.892175,-6.86858 5.057423,-10.033 2.186163,-1.66158 5.028494,-2.57527 8.00241,-2.57527 4.253795,0 8.135409,1.78858 10.383309,4.78366 1.956858,2.60703 2.283177,5.59859 2.212622,7.65175 -0.02646,0.76906 -0.652286,1.38289 -1.422047,1.39347 l -22.773217,0.32103 c -0.0067,0 -0.0134,0 -0.02046,0"
       style="fill:#231f20;fill-opacity:1;fill-rule:nonzero;stroke:none;stroke-width:0.0352778"
       id="path2149" />
    <path
       d="m 83.368743,112.64598 c -2.031647,0 -3.993091,1.38641 -4.664427,3.29494 -0.0071,0.0212 -0.862895,2.61408 0.676275,4.33211 0.900641,1.00542 2.160411,1.21709 3.05823,1.21709 0.804686,0 1.646061,-0.16581 2.369608,-0.46567 1.251303,-0.51858 3.350684,-1.9932 3.280128,-4.23333 -0.06738,-2.13078 -2.055283,-3.7465 -3.938411,-4.07459 -0.257175,-0.0459 -0.519994,-0.0706 -0.781403,-0.0706 z m -0.929922,11.73339 v 0 c -2.131836,0 -3.933119,-0.75495 -5.209469,-2.18017 -2.689578,-3.00567 -1.307747,-7.04497 -1.247775,-7.21783 1.080558,-3.0727 4.11868,-5.22111 7.387166,-5.22111 0.42792,0 0.858309,0.0388 1.279525,0.11288 2.978503,0.51859 6.207831,3.09034 6.325306,6.82625 0.10548,3.33728 -2.464859,5.91609 -5.058834,6.99206 -1.066094,0.4445 -2.300111,0.68792 -3.475919,0.68792"
       style="fill:#231f20;fill-opacity:1;fill-rule:nonzero;stroke:none;stroke-width:0.0352778"
       id="path2151" />
    <path
       d="m 53.495522,117.66248 c -0.962025,0 -1.808339,0.28575 -2.515306,0.85372 -1.51765,1.21003 -2.045758,3.54189 -1.202619,5.30578 0.827616,1.72861 2.697691,2.26483 3.463219,2.413 0.366889,0.0706 0.777875,0.10936 1.188861,0.10936 v 0 c 0.888647,0 3.056114,-0.1905 4.000853,-1.94381 0.957086,-1.77447 0.03775,-4.06047 -1.313039,-5.31283 -0.949678,-0.87842 -2.337505,-1.42522 -3.621969,-1.42522 z m 0.934508,11.56758 c -3.53e-4,0 -3.53e-4,0 -7.06e-4,0 -0.60078,0 -1.185686,-0.0529 -1.738841,-0.16228 -1.195917,-0.23283 -4.123972,-1.08655 -5.517444,-4.0005 -1.421342,-2.97039 -0.559153,-6.75922 2.004836,-8.80886 1.214261,-0.97014 2.707216,-1.48166 4.317647,-1.48166 2.011891,0 4.098925,0.81844 5.582708,2.19427 2.200275,2.03553 3.557764,5.71147 1.893711,8.79828 -1.184628,2.20133 -3.569405,3.46075 -6.541911,3.46075"
       style="fill:#231f20;fill-opacity:1;fill-rule:nonzero;stroke:none;stroke-width:0.0352778"
       id="path2153" />
    <path
       d="m 85.88934,109.49214 c -0.171097,0.67734 -0.116063,1.10773 0.01693,1.29823 0.205669,0.29986 0.883708,0.47625 1.81363,0.47625 0.6096,0 1.205442,-0.0706 1.640064,-0.12348 4.179006,-0.49741 13.732936,-4.36033 25.719266,-10.38225 l -1.4545,-2.423579 z m 1.830564,4.6602 v 0 c -1.988608,0 -3.39725,-0.57856 -4.186413,-1.7145 -0.549275,-0.79375 -1.024114,-2.2225 -0.166864,-4.5332 0.141464,-0.381 0.437091,-0.68438 0.814916,-0.83608 L 113.68999,95.201117 c 0.65864,-0.268111 1.41147,-0.01411 1.77659,0.596194 l 2.88643,4.808359 c 0.20602,0.34572 0.26035,0.75847 0.14993,1.143 -0.11077,0.38453 -0.37641,0.70556 -0.73343,0.889 -6.20289,3.15031 -21.355045,10.57275 -28.067347,11.37356 -0.478014,0.0564 -1.200856,0.14111 -1.982259,0.14111"
       style="fill:#231f20;fill-opacity:1;fill-rule:nonzero;stroke:none;stroke-width:0.0352778"
       id="path2155" />
    <path
       d="m 69.007513,143.56342 2.728383,1.12536 8.230658,-20.43641 -1.890183,-0.81139 z m 3.523897,4.45558 c -0.186619,0 -0.373591,-0.0353 -0.549275,-0.10936 l -5.452886,-2.24366 c -0.36195,-0.14817 -0.647347,-0.43745 -0.791633,-0.80081 -0.144639,-0.36336 -0.135467,-0.77258 0.0254,-1.12889 l 10.264069,-22.7718 c 0.323145,-0.71614 1.161345,-1.04423 1.884539,-0.73378 l 4.490155,1.92617 c 0.721431,0.30691 1.063273,1.13594 0.770114,1.86266 l -9.301691,23.09636 c -0.143581,0.35631 -0.424039,0.64206 -0.778581,0.79023 -0.178858,0.0741 -0.369711,0.11288 -0.560211,0.11288"
       style="fill:#231f20;fill-opacity:1;fill-rule:nonzero;stroke:none;stroke-width:0.0352778"
       id="path2157" />
    <path
       d="m 58.485211,128.715 4.960055,14.45331 2.393597,-0.0882 2.177345,-4.47323 -7.120114,-12.65766 c -0.388409,0.52916 -0.800806,1.04422 -1.235075,1.53458 -0.373945,0.42333 -0.767292,0.83608 -1.175808,1.23119 z m 3.942291,17.37784 c -0.614539,0 -1.164167,-0.38806 -1.364897,-0.97367 l -5.613047,-16.3583 c -0.189795,-0.55034 -0.02787,-1.16417 0.409928,-1.5487 0.577497,-0.51153 1.128536,-1.06186 1.637241,-1.63689 0.846314,-0.95955 1.597731,-2.01083 2.233436,-3.12914 0.256822,-0.45155 0.735895,-0.72672 1.254478,-0.72672 0.0011,0 0.0025,0 0.0039,0 0.519994,0 0.999066,0.28222 1.254125,0.73378 l 8.659988,15.39522 c 0.232128,0.41275 0.247297,0.9137 0.04022,1.34056 l -2.886781,5.93372 c -0.233538,0.47978 -0.711905,0.79022 -1.2446,0.81139 l -4.330347,0.15875 c -0.01764,0 -0.03598,0 -0.05362,0"
       style="fill:#231f20;fill-opacity:1;fill-rule:nonzero;stroke:none;stroke-width:0.0352778"
       id="path2159" />
    <path
       d="m 23.573264,134.34534 1.779764,2.16958 23.752527,-9.18986 c -0.480483,-0.46567 -0.942975,-0.94192 -1.385005,-1.43581 -0.285045,-0.32102 -0.564445,-0.64558 -0.836084,-0.98072 z m 1.327503,5.334 c -0.423334,0 -0.835731,-0.18697 -1.115836,-0.52564 l -3.688997,-4.49086 c -0.291042,-0.35631 -0.396523,-0.82903 -0.283281,-1.27353 0.113242,-0.4445 0.431447,-0.80786 0.85725,-0.98072 l 26.140833,-10.58686 c 0.608541,-0.24342 1.305983,-0.0494 1.698272,0.47625 0.428625,0.57502 0.886883,1.13241 1.362075,1.66511 0.877005,0.97719 1.844675,1.89441 2.875844,2.72344 0.40252,0.32456 0.601486,0.83609 0.522817,1.34761 -0.07938,0.508 -0.424392,0.93839 -0.905581,1.12536 l -26.943049,10.42459 c -0.169686,0.0635 -0.346075,0.0952 -0.520347,0.0952"
       style="fill:#231f20;fill-opacity:1;fill-rule:nonzero;stroke:none;stroke-width:0.0352778"
       id="path2161" />
    <path
       d="m 16.801342,153.353 c -0.269169,0 -0.537281,-0.0776 -0.771172,-0.22577 -1.146881,-0.7232 -1.69545,-1.57339 -1.631245,-2.51884 0.100542,-1.48166 1.600553,-2.12372 2.241198,-2.40241 l 0.06562,-0.0282 c 2.136422,-0.9278 4.021667,-3.43252 4.5085,-4.80836 0.654756,-1.85208 -0.139347,-4.55436 -1.770592,-6.02544 -1.001536,-0.90311 -2.360083,-1.34056 -4.153252,-1.34056 -1.941689,0 -4.016022,0.50448 -5.8462334,0.94898 -1.9741444,0.47977 -3.1263166,1.06538 -3.5051999,1.25941 -0.2088445,0.10584 -0.4459111,0.22578 -0.8029222,0.22578 -0.5760861,0 -1.0996083,-0.34219 -1.3278556,-0.87136 -0.1922638,-0.44803 -0.1453444,-0.96661 0.1227667,-1.37231 0.4423833,-0.67027 6.8904554,-4.99533 12.7853724,-4.99533 1.562805,0 3.004961,0.29281 4.285544,0.87136 2.835275,1.27353 4.993216,3.97228 5.632097,7.03439 1.140883,5.47158 -2.760839,11.41589 -9.276997,14.13581 -0.178506,0.0741 -0.367594,0.11288 -0.555625,0.11288"
       style="fill:#231f20;fill-opacity:1;fill-rule:nonzero;stroke:none;stroke-width:0.0352778"
       id="path2163" />
    <path
       d="m 121.37279,104.44037 c -1.31269,0 -2.54424,-0.26106 -3.66078,-0.77964 -2.51707,-1.16417 -5.77709,-4.360336 -5.1435,-7.821086 0.22437,-1.227666 0.99095,-2.307166 2.64584,-3.725333 3.87138,-3.316111 8.56368,-4.981222 10.10249,-4.981222 1.01847,0 1.41429,0.645583 1.53741,0.92075 0.54081,1.217083 -0.38559,1.859139 -2.06693,3.026833 -1.09608,0.762 -2.70862,1.837972 -4.9403,3.326695 l -0.25223,0.169333 c -1.33244,0.885472 -1.97521,1.326444 -2.02989,1.580444 -0.0656,0.306917 0.0416,0.892528 0.5387,1.612195 0.69744,1.012472 1.83938,1.799166 2.84162,1.954389 0.10548,0.01764 0.19897,0.02469 0.2854,0.02469 0.33231,0 0.73272,-0.123472 1.60619,-0.405694 0.79693,-0.257528 1.88807,-0.606778 3.54084,-1.033639 1.0608,-0.275167 2.13712,-0.522111 3.19934,-0.737306 0.62265,-0.130528 1.25589,0.165806 1.55822,0.726722 0.30233,0.557389 0.2032,1.248834 -0.24448,1.700389 -2.79541,2.82223 -6.26427,4.44148 -9.51794,4.44148"
       style="fill:#231f20;fill-opacity:1;fill-rule:nonzero;stroke:none;stroke-width:0.0352778"
       id="path2165" />
    <path
       d="m 177.53783,195.01606 7.89728,1.72861 v -2.51531 c -2.99332,-0.8008 -5.51285,-2.29305 -7.33672,-4.36033 -1.18145,-1.33703 -2.52624,-3.45722 -3.54506,-9.03464 -0.80857,-4.42383 -0.79692,-7.60941 -0.78669,-10.42105 0.0123,-3.39372 0.0222,-6.07484 -1.39101,-9.86014 -0.4385,-1.17828 -0.92251,-2.24014 -1.3402,-3.01978 -0.0134,0.12347 -0.0268,0.254 -0.0399,0.39864 -0.40323,4.47322 -0.51718,13.5008 -0.32138,25.44586 z m 9.34014,4.96358 c -0.1023,0 -0.20461,-0.0106 -0.30691,-0.0317 l -10.26513,-2.24719 c -0.39194,-0.0847 -0.7306,-0.33161 -0.93451,-0.67734 l -7.37729,-12.5095 c -0.12664,-0.21166 -0.19579,-0.45861 -0.20002,-0.70555 -0.1457,-8.65364 -0.20779,-20.21417 0.32632,-26.13731 0.12947,-1.43227 0.34537,-3.83116 2.12654,-4.17336 0.11607,-0.0212 0.23566,-0.0317 0.35454,-0.0317 0.66217,0 2.21298,0 4.47852,6.07836 1.59738,4.2792 1.58609,7.33778 1.57339,10.87967 -0.01,2.68464 -0.0208,5.72911 0.73942,9.89189 0.89182,4.88244 1.95121,6.604 2.86985,7.64469 1.63336,1.84856 4.01884,3.13267 6.90103,3.7077 0.67381,0.13405 1.15712,0.72672 1.15712,1.41464 v 5.45394 c 0,0.43745 -0.19756,0.8502 -0.53623,1.12536 -0.26105,0.20814 -0.57855,0.3175 -0.90664,0.3175"
       style="fill:#231f20;fill-opacity:1;fill-rule:nonzero;stroke:none;stroke-width:0.0352778"
       id="path2167" />
    <path
       d="m 171.32294,169.1892 c -0.5528,0 -1.08055,-0.32103 -1.31974,-0.85725 -0.32385,-0.73025 0.004,-1.58045 0.73237,-1.905 l 2.88713,-1.28411 c 0.72884,-0.32103 1.58151,0.004 1.90536,0.73378 0.32349,0.72672 -0.005,1.58044 -0.73308,1.905 l -2.88642,1.28411 c -0.1905,0.0847 -0.38947,0.12347 -0.58562,0.12347"
       style="fill:#231f20;fill-opacity:1;fill-rule:nonzero;stroke:none;stroke-width:0.0352778"
       id="path2169" />
    <path
       d="m 177.69799,197.23503 c -0.83397,0 -1.23895,-0.32808 -1.54693,-0.889 -0.68792,-1.25589 0.38347,-2.21544 1.41923,-3.14325 0.40287,-0.35983 1.27352,-1.13947 1.5621,-1.61219 -0.49142,-0.22931 -1.61925,-0.42334 -2.33328,-0.54681 -2.04893,-0.35278 -4.37127,-0.75142 -4.93747,-2.68464 -0.44874,-1.53105 0.6163,-2.77283 1.39382,-3.67594 0.27834,-0.32456 0.72813,-0.8502 0.82832,-1.11831 -0.2547,-0.17286 -0.9973,-0.3563 -1.45662,-0.46919 -1.32715,-0.32809 -2.9785,-0.73378 -3.60715,-2.30364 -0.86007,-2.15195 1.08162,-4.42383 2.7933,-6.29708 -0.0437,0.0141 -0.0882,0.0317 -0.13335,0.0494 -0.74472,0.28928 -1.57939,-0.0847 -1.86549,-0.82902 -0.28575,-0.74436 0.0854,-1.57692 0.82938,-1.8662 2.21015,-0.84666 4.44888,-1.55222 5.41302,-0.0847 0.9077,1.38288 -0.30798,2.70933 -1.84715,4.38855 -0.73483,0.80081 -2.6864,2.92806 -2.5093,3.56658 0.14887,0.21167 1.10349,0.4445 1.61642,0.5715 1.28941,0.3175 3.05506,0.75142 3.55812,2.4377 0.48084,1.60867 -0.62336,2.8963 -1.42945,3.83469 -0.24025,0.2787 -0.61701,0.71614 -0.75495,0.9772 0.45544,0.28928 1.82951,0.52564 2.59821,0.65969 2.07186,0.35631 4.21358,0.7232 4.72616,2.57528 0.23883,0.86078 -0.0102,1.66158 -0.47342,2.38831 0.74506,-0.28928 1.63583,-0.64559 2.69416,-1.09009 0.73378,-0.31044 1.58044,0.0388 1.88736,0.77259 0.31044,0.7373 -0.0353,1.58044 -0.77258,1.89088 -4.22416,1.77095 -6.41244,2.49767 -7.65246,2.49767"
       style="fill:#231f20;fill-opacity:1;fill-rule:nonzero;stroke:none;stroke-width:0.0352778"
       id="path2171" />
    <path
       d="m 96.838504,161.19525 51.472396,2.46592 -1.49331,-29.86264 c -1.62384,-1.40053 -3.13866,-2.93864 -4.50885,-4.58258 -1.93464,-2.31775 -3.60116,-4.86128 -4.96147,-7.57414 -6.9088,-0.5715 -13.91849,-0.762 -20.83259,-0.56444 -5.47087,0.15169 -10.99608,0.55033 -16.43591,1.1818 l -6.51616,12.44247 1.541639,24.97667 z m 52.993576,5.42573 c -0.0233,0 -0.0462,0 -0.0691,0 l -53.56507,-2.5647 c -0.325614,-0.0176 -0.636411,-0.14111 -0.881592,-0.3563 l -2.565753,-2.2472 c -0.289983,-0.254 -0.466372,-0.6103 -0.490008,-0.99483 l -1.604081,-25.98208 c -0.01587,-0.26106 0.03986,-0.52564 0.161925,-0.75848 l 7.056614,-13.47258 c 0.220486,-0.41981 0.634295,-0.70556 1.106311,-0.762 5.769324,-0.69497 11.640964,-1.12889 17.451914,-1.29469 7.2958,-0.20461 14.69778,0.0141 21.977,0.64911 0.51012,0.0423 0.9585,0.3563 1.17828,0.81844 1.31868,2.77283 2.97991,5.36575 4.93677,7.71172 1.39524,1.67217 2.9524,3.23145 4.62774,4.62845 0.30938,0.25753 0.49671,0.635 0.51682,1.03716 l 1.59561,31.90523 c 0.0127,0.0776 0.0198,0.15875 0.0198,0.23989 0,0.79727 -0.64629,1.44286 -1.44357,1.44286 -0.003,0 -0.007,0 -0.01,0"
       style="fill:#231f20;fill-opacity:1;fill-rule:nonzero;stroke:none;stroke-width:0.0352778"
       id="path2173" />
    <path
       d="m 100.1144,159.56542 c -0.757063,0 -1.392768,-0.58914 -1.439335,-1.35467 l -1.283053,-21.17019 c -0.04798,-0.79728 0.557742,-1.48167 1.353609,-1.52753 0.795161,-0.0494 1.479549,0.55739 1.527879,1.35114 l 1.28305,21.1702 c 0.0483,0.79727 -0.55774,1.48166 -1.35325,1.52752 -0.03,0.004 -0.0596,0.004 -0.0889,0.004"
       style="fill:#231f20;fill-opacity:1;fill-rule:nonzero;stroke:none;stroke-width:0.0352778"
       id="path2175" />
    <path
       d="m 103.6457,155.71662 c -0.084,0 -0.16898,-0.007 -0.2547,-0.0212 -0.78493,-0.14111 -1.30775,-0.889 -1.16805,-1.6757 0.34643,-1.9438 0.55492,-3.92641 0.62018,-5.88786 0.17428,-5.26697 -0.6611,-10.53747 -2.48355,-15.66686 -0.26705,-0.75141 0.12559,-1.57691 0.87665,-1.84503 0.75177,-0.26458 1.57692,0.127 1.84327,0.87842 1.94415,5.46806 2.83527,11.09839 2.649,16.72872 -0.0699,2.10256 -0.29315,4.21923 -0.66322,6.30061 -0.12453,0.6985 -0.73342,1.18887 -1.41958,1.18887"
       style="fill:#231f20;fill-opacity:1;fill-rule:nonzero;stroke:none;stroke-width:0.0352778"
       id="path2177" />
    <path
       d="m 127.5397,133.94317 9.30204,0.24342 v -4.73075 l -9.30204,0.24341 z m 10.74525,3.17147 c -0.0127,0 -0.0254,0 -0.0381,0 l -12.18847,-0.32102 c -0.78211,-0.0212 -1.40511,-0.66323 -1.40511,-1.44287 v -7.05908 c 0,-0.77964 0.623,-1.42169 1.40511,-1.44286 l 12.18847,-0.32103 c 0.39159,-0.007 0.76624,0.13759 1.04528,0.40922 0.2787,0.27164 0.43639,0.64559 0.43639,1.03364 v 7.70114 c 0,0.38806 -0.15769,0.762 -0.43639,1.03364 -0.26987,0.26106 -0.63147,0.40922 -1.00718,0.40922"
       style="fill:#231f20;fill-opacity:1;fill-rule:nonzero;stroke:none;stroke-width:0.0352778"
       id="path2179" />
    <path
       d="m 134.83302,136.39498 c -1.24424,0 -2.60702,-0.35984 -3.94088,-1.04423 -0.4071,-0.20813 -0.69144,-0.59619 -0.76658,-1.04775 l -0.32068,-1.92263 c -0.0699,-0.41981 0.0483,-0.84667 0.32244,-1.17123 0.27446,-0.32455 0.67698,-0.51152 1.10137,-0.51152 h 5.77356 c 0.61172,0 1.15711,0.38805 1.36067,0.96308 0.57714,1.63336 0.16404,2.68464 -0.13371,3.16442 -0.617,0.99836 -1.8549,1.56986 -3.39619,1.56986"
       style="fill:#231f20;fill-opacity:1;fill-rule:nonzero;stroke:none;stroke-width:0.0352778"
       id="path2181" />
    <path
       d="m 124.5365,155.49084 23.38317,1.71097 -0.37642,-4.14514 -23.38352,-1.71097 z m 24.9749,4.71664 c -0.0349,0 -0.0702,0 -0.10548,-0.004 l -26.30135,-1.92617 c -0.70449,-0.0494 -1.26859,-0.60325 -1.33244,-1.3088 l -0.64135,-7.05556 c -0.0381,-0.42333 0.11113,-0.83961 0.40781,-1.143 0.29739,-0.29986 0.70944,-0.45861 1.13489,-0.42686 l 26.30135,1.92617 c 0.70485,0.0494 1.26858,0.60325 1.33244,1.3088 l 0.62618,6.88622 c 0.0205,0.0988 0.031,0.19756 0.031,0.29987 0,0.79727 -0.64629,1.44286 -1.44356,1.44286 -0.003,0 -0.007,0 -0.01,0"
       style="fill:#231f20;fill-opacity:1;fill-rule:nonzero;stroke:none;stroke-width:0.0352778"
       id="path2183" />
    <path
       d="m 129.3057,157.00073 c -0.0374,0 -0.0748,-0.004 -0.11218,-0.004 -0.79481,-0.0635 -1.38959,-0.75495 -1.32856,-1.55222 l 0.32067,-4.16984 c 0.061,-0.79375 0.7613,-1.38641 1.54975,-1.32644 0.79481,0.06 1.3896,0.75494 1.32857,1.54869 l -0.32068,4.16984 c -0.0582,0.75847 -0.69074,1.3335 -1.43757,1.3335"
       style="fill:#231f20;fill-opacity:1;fill-rule:nonzero;stroke:none;stroke-width:0.0352778"
       id="path2185" />
    <path
       d="m 137.32081,157.64278 c -0.70026,0 -1.31515,-0.51153 -1.42487,-1.22414 l -0.64135,-4.16983 c -0.12135,-0.79022 0.4191,-1.524 1.20685,-1.64747 0.78811,-0.12347 1.52506,0.4198 1.64607,1.2065 l 0.64205,4.16983 c 0.121,0.79022 -0.41945,1.52753 -1.2072,1.64747 -0.0744,0.0106 -0.14852,0.0176 -0.22155,0.0176"
       style="fill:#231f20;fill-opacity:1;fill-rule:nonzero;stroke:none;stroke-width:0.0352778"
       id="path2187" />
    <path
       d="m 143.09755,157.96381 c -0.11607,0 -0.23389,-0.0141 -0.35137,-0.0459 -0.77329,-0.1905 -1.24354,-0.9772 -1.05022,-1.74978 l 0.96203,-3.8488 c 0.19332,-0.77259 0.97825,-1.24531 1.75048,-1.05128 0.77329,0.19403 1.24354,0.97719 1.05057,1.7533 l -0.96238,3.84881 c -0.16404,0.65617 -0.75282,1.09361 -1.39911,1.09361"
       style="fill:#231f20;fill-opacity:1;fill-rule:nonzero;stroke:none;stroke-width:0.0352778"
       id="path2189" />
    <path
       d="m 151.14229,142.56506 h 6.71971 c 0.31045,-0.85019 0.55774,-1.9685 0.47272,-3.27378 -0.10724,-1.651 -0.71613,-2.94922 -1.2393,-3.78178 h -6.63611 z m 7.67045,2.88925 h -8.98066 c -0.74331,0 -1.36525,-0.56444 -1.43652,-1.30528 l -0.96237,-9.9448 c -0.0392,-0.4057 0.0945,-0.80786 0.36794,-1.10773 0.27376,-0.30338 0.66181,-0.47272 1.06857,-0.47272 h 8.98101 c 0.45085,0 0.8763,0.21167 1.149,0.56797 0.9137,1.20298 2.03941,3.20323 2.2158,5.91256 0.15663,2.40594 -0.51612,4.34269 -1.10808,5.54214 -0.24271,0.49389 -0.74471,0.80786 -1.29469,0.80786"
       style="fill:#231f20;fill-opacity:1;fill-rule:nonzero;stroke:none;stroke-width:0.0352778"
       id="path2191" />
    <path
       d="m 157.52933,143.52814 c -0.62512,0 -1.20085,-0.40922 -1.385,-1.03716 -0.52917,-1.81681 -1.02412,-3.06564 -1.41676,-3.88409 -0.14181,0.97014 -0.23883,2.25425 -0.24483,3.48545 -0.004,0.79375 -0.64946,1.4358 -1.44321,1.4358 -0.002,0 -0.005,0 -0.007,0 -0.79728,-0.004 -1.4404,-0.65264 -1.43652,-1.44991 0.0349,-7.1367 1.76813,-7.40128 2.50825,-7.51417 0.78247,-0.11994 2.61797,-0.40217 4.81119,7.11553 0.22331,0.76553 -0.2159,1.56986 -0.98108,1.79211 -0.13511,0.0388 -0.27128,0.0564 -0.40499,0.0564"
       style="fill:#231f20;fill-opacity:1;fill-rule:nonzero;stroke:none;stroke-width:0.0352778"
       id="path2193" />
    <path
       d="m 147.01832,193.04403 h -0.0639 c -3.73521,0.0247 -9.20715,2.23661 -9.76524,6.32883 -0.51824,3.80295 3.41488,7.06614 6.01591,8.23031 1.40441,0.63147 3.06317,0.97719 4.67078,0.97719 1.58891,0 4.56354,-0.35983 6.63611,-2.76577 1.39029,-1.61573 2.65747,-4.54731 1.6517,-7.493 -1.42452,-4.17336 -6.60506,-5.27756 -9.14541,-5.27756 z m 0.8576,18.42206 c -2.00554,0 -4.0834,-0.43392 -5.85082,-1.22767 -3.49708,-1.56633 -8.43209,-5.85611 -7.6962,-11.25361 0.82339,-6.03956 7.86801,-8.79828 12.60722,-8.8265 h 0.0822 c 3.49462,0 9.92893,1.52047 11.87767,7.23194 1.15182,3.37256 0.28963,7.42245 -2.1971,10.30817 -2.09267,2.43064 -5.22605,3.76767 -8.82297,3.76767"
       style="fill:#231f20;fill-opacity:1;fill-rule:nonzero;stroke:none;stroke-width:0.0352778"
       id="path2195" />
    <path
       d="m 114.63508,195.32298 c -1.73954,0 -4.16101,0.39511 -5.81624,2.28247 -1.37725,1.56986 -2.01824,3.91583 -1.71486,6.27591 0.27693,2.15548 1.32751,3.99698 2.8822,5.04825 0.94721,0.63853 2.03658,0.96662 3.23744,0.96662 2.68076,0 5.55837,-1.61573 7.22066,-3.21734 2.04434,-1.9685 2.95239,-3.89819 2.6991,-5.73969 -0.45332,-3.28789 -4.51732,-5.12234 -6.9723,-5.50686 -0.26494,-0.0423 -0.81703,-0.10936 -1.536,-0.10936 z m -1.41146,17.45897 c -1.78823,0 -3.42194,-0.49389 -4.85563,-1.46403 -2.24014,-1.51342 -3.74439,-4.09222 -4.1275,-7.06967 -0.40711,-3.16794 0.49283,-6.36411 2.40841,-8.5478 2.36785,-2.69875 5.65009,-3.26672 7.98618,-3.26672 0.86784,0 1.55646,0.0811 1.9812,0.14816 4.08058,0.635 8.75807,3.40078 9.38672,7.9622 0.26564,1.92969 -0.13547,4.92125 -3.556,8.21266 -1.92758,1.85914 -5.49981,4.0252 -9.22338,4.0252"
       style="fill:#231f20;fill-opacity:1;fill-rule:nonzero;stroke:none;stroke-width:0.0352778"
       id="path2197" />
    <path
       d="m 82.07546,194.00359 c -0.09454,0 -0.189442,0 -0.282928,0.004 -3.468864,0.0917 -6.806847,1.88031 -8.711494,4.66373 -0.536222,0.78316 -1.961092,2.86455 -1.680281,5.52802 0.267759,2.54353 2.063045,4.88598 5.054953,6.59695 1.7653,1.00894 3.912306,1.56633 6.0452,1.56633 1.856317,0 4.577644,-0.41628 6.998758,-2.39183 0.964142,-0.79022 4.087283,-3.65125 3.804356,-7.43656 -0.364773,-4.88244 -6.22935,-8.53016 -11.228564,-8.53016 z m 0.42545,21.24427 c -2.627842,0 -5.283905,-0.69144 -7.478889,-1.94733 -3.818819,-2.18369 -6.124222,-5.3093 -6.491816,-8.79828 -0.392289,-3.7218 1.534936,-6.53697 2.168525,-7.46125 2.417586,-3.5313 6.638219,-5.79966 11.01478,-5.91961 6.368697,-0.17286 13.966119,4.4697 14.46918,11.19717 0.386997,5.17525 -3.619147,8.87589 -4.856339,9.88483 -2.437694,1.9932 -5.489574,3.04447 -8.825441,3.04447"
       style="fill:#231f20;fill-opacity:1;fill-rule:nonzero;stroke:none;stroke-width:0.0352778"
       id="path2199" />
    <path
       d="m 48.74678,194.3352 c -0.926394,0 -1.838325,0.11641 -2.710039,0.34572 -1.36913,0.35983 -5.913613,1.85561 -6.904213,5.92314 -0.525992,2.159 0.0063,4.52967 1.389944,6.19125 1.846439,2.21192 4.665133,2.40594 7.649633,2.61055 0.8382,0.0565 1.984375,0.13759 3.21945,0.13759 4.40055,0 7.141986,-0.99836 8.147403,-2.96334 1.687336,-3.29847 -1.977672,-8.02569 -2.014714,-8.07508 -2.051403,-2.61055 -5.332589,-4.16983 -8.777464,-4.16983 z m 2.644775,18.09397 c -1.333853,0 -2.537178,-0.0847 -3.415594,-0.14464 -3.29812,-0.22578 -7.034389,-0.4833 -9.670344,-3.64067 -1.958623,-2.3495 -2.716389,-5.6903 -1.978025,-8.72419 1.368425,-5.61622 7.213952,-7.56708 8.973255,-8.02922 1.111955,-0.29634 2.271183,-0.4445 3.445933,-0.4445 4.323645,0 8.453614,1.97203 11.047589,5.27755 0.497416,0.635 4.791427,6.32884 2.314575,11.17248 -1.53917,3.00566 -5.145264,4.53319 -10.717389,4.53319"
       style="fill:#231f20;fill-opacity:1;fill-rule:nonzero;stroke:none;stroke-width:0.0352778"
       id="path2201" />
    <path
       d="m 48.672344,201.93403 c -0.379942,0 -0.706261,0.10583 -0.794455,0.25753 -0.129823,0.22225 0.02187,0.762 0.300566,1.06539 0.268817,0.29633 0.798336,0.47978 1.382536,0.47978 0.557742,0 0.919339,-0.16228 1.044575,-0.254 -0.01164,-0.32103 -0.447675,-1.11478 -1.153936,-1.40406 -0.222955,-0.0917 -0.506941,-0.14464 -0.779286,-0.14464 z m 0.888647,4.68842 c -1.411816,0 -2.693105,-0.51859 -3.51543,-1.41817 -0.989895,-1.08655 -1.534936,-2.97039 -0.661459,-4.46617 0.625828,-1.07597 1.824567,-1.6898 3.288242,-1.6898 0.652286,0 1.299986,0.12347 1.873603,0.35983 1.180394,0.48331 2.206272,1.53811 2.677583,2.7552 0.353836,0.91369 0.355247,1.82386 0.0039,2.56469 -0.553861,1.1677 -1.958623,1.89442 -3.66642,1.89442"
       style="fill:#231f20;fill-opacity:1;fill-rule:nonzero;stroke:none;stroke-width:0.0352778"
       id="path2203" />
    <path
       d="m 82.588046,202.65017 c -0.604308,0 -1.126419,0.21167 -1.217436,0.39864 -0.05821,0.12347 -0.04621,0.41275 0.118181,0.75847 0.250825,0.52917 0.724252,0.94897 1.207205,1.06539 0.108656,0.0282 0.226483,0.0388 0.349603,0.0388 0.831144,0 1.563511,-0.5715 1.601258,-0.94545 0.04551,-0.44803 -0.914753,-1.21355 -1.837266,-1.30528 -0.06985,-0.007 -0.144287,-0.0106 -0.221545,-0.0106 z m 0.457553,5.15056 c -0.352778,0 -0.700264,-0.0423 -1.032581,-0.12348 -1.334558,-0.32455 -2.50578,-1.3088 -3.132666,-2.63172 -0.526697,-1.11125 -0.567972,-2.29305 -0.112889,-3.24203 0.815622,-1.70039 2.925939,-2.159 4.33458,-2.01436 2.27965,0.22931 4.654197,2.12372 4.417131,4.46617 -0.197909,1.95439 -2.204509,3.54542 -4.473575,3.54542"
       style="fill:#231f20;fill-opacity:1;fill-rule:nonzero;stroke:none;stroke-width:0.0352778"
       id="path2205" />
    <path
       d="m 113.67729,203.14406 c 0.1016,0.0847 0.47872,0.28222 1.00366,0.28222 0.34043,0 0.6477,-0.0847 0.86465,-0.24342 0.29493,-0.21519 0.52952,-0.63852 0.5969,-1.07597 0.049,-0.32103 -0.0109,-0.53622 -0.0462,-0.58208 0.008,0.0106 -0.0519,-0.007 -0.1651,-0.007 -0.50059,0 -1.23049,0.32809 -1.66158,0.74436 -0.2667,0.25753 -0.54505,0.67734 -0.59232,0.88195 z m 1.00366,3.17147 c -1.74308,0 -3.24133,-0.87842 -3.72851,-2.18017 -0.69991,-1.87325 0.96837,-3.6195 1.30986,-3.94758 0.97861,-0.94544 2.41794,-1.55575 3.66889,-1.55575 0.87912,0 1.63936,0.28928 2.19816,0.84314 0.6671,0.65617 0.98883,1.62278 0.90628,2.71992 -0.0995,1.31939 -0.78669,2.59291 -1.79352,3.32316 -0.71649,0.52211 -1.60196,0.79728 -2.56116,0.79728"
       style="fill:#231f20;fill-opacity:1;fill-rule:nonzero;stroke:none;stroke-width:0.0352778"
       id="path2207" />
    <path
       d="m 147.03067,199.40461 c -0.69145,0 -1.24496,0.40217 -1.30387,0.58209 0.0289,0.14111 0.4759,0.63147 1.04493,0.8643 0.26635,0.10936 0.60748,0.17286 0.93592,0.17286 0.50906,0 0.78846,-0.14816 0.83291,-0.20108 0.002,-0.0176 0.0127,-0.19755 -0.13194,-0.48683 -0.20497,-0.4057 -0.57821,-0.74789 -0.95109,-0.86784 -0.12841,-0.0423 -0.27199,-0.0635 -0.42686,-0.0635 z m 0.67698,4.50498 c -0.7105,0 -1.41323,-0.13406 -2.032,-0.38806 -1.57269,-0.64558 -3.04165,-2.20486 -2.8067,-3.937 0.25999,-1.91911 2.32022,-3.06564 4.16172,-3.06564 0.46143,0 0.90805,0.067 1.32715,0.20461 1.18921,0.39159 2.24437,1.37936 2.75272,2.58234 0.41275,0.97719 0.41981,1.9685 0.0191,2.79047 -0.5528,1.13594 -1.83197,1.81328 -3.42194,1.81328"
       style="fill:#231f20;fill-opacity:1;fill-rule:nonzero;stroke:none;stroke-width:0.0352778"
       id="path2209" />
  </g>
</svg>
